<?xml version="1.0" encoding="UTF-8"?><svg version="1.1" xmlns="http://www.w3.org/2000/svg" viewBox="0, 0, 596, 596"><rect x="0" y="0" width="596" height="596" fill="#FFFFFF"/><path d="M0.06,0.72 L595.28,0.72 L595.28,596 L0.06,596 z" fill="#E0E0DB"/><path d="M297.639,292.419 C275.203,292.419 257.014,274.23 257.014,251.794 C257.014,229.358 275.203,211.169 297.639,211.169 C320.078,211.169 338.264,229.358 338.264,251.794 C338.264,274.23 320.078,292.419 297.639,292.419 z M297.649,136.848 C236.094,136.848 183.409,185.848 183.409,241.41 C183.409,329.82 280.289,436.234 297.631,462.195 C314.992,436.153 411.869,329.13 411.869,241.41 C411.869,185.848 361.028,136.848 297.649,136.848" fill="#FBFAF8"/></svg>
