<?xml version="1.0" encoding="UTF-8"?><svg version="1.1" xmlns="http://www.w3.org/2000/svg" viewBox="0, 0, 596, 596"><rect x="0" y="0" width="596" height="596" fill="#FFFFFF"/><path d="M0.06,0.72 L595.28,0.72 L595.28,596 L0.06,596 z" fill="#e2e2e2"/><path d="M297.19,333.009 C347.788,333.009 388.987,291.81 388.987,241.212 C388.987,190.614 347.888,149.415 297.19,149.415 C246.592,149.415 205.393,190.614 205.393,241.212 C205.393,291.81 246.592,333.009 297.19,333.009" fill="#f8f8f8"/><path d="M297.19,359.808 C195.993,359.808 131.996,413.106 131.996,457.305 L131.996,596 L462.484,596 L462.484,451.405 C462.384,408.506 394.187,359.808 297.19,359.808" fill="#f8f8f8"/><path d="M260.591,348.913 L333.989,348.913 L308.59,404.011 L333.989,440.71 L315.722,596 L278.858,596 L260.591,440.71 L285.99,404.011 L260.591,348.913" fill="#e2e2e2"/></svg>
