<?xml version="1.0" encoding="utf-8"?>
<svg version="1.1" id="Layer_2" xmlns="http://www.w3.org/2000/svg" xmlns:xlink="http://www.w3.org/1999/xlink" x="0px" y="0px"
	 viewBox="0 123.3 595.3 595.3" enable-background="new 0 123.3 595.3 595.3" xml:space="preserve">
<rect y="123.3" fill="#cacaca" width="595.3" height="595.3"/>
<path fill="#e8e7e7" d="M297.2,482.4C196,482.4,132,535.7,132,579.9v138.7h330.5V574C462.4,531.1,394.2,482.4,297.2,482.4z"/>
<g>
	<path fill="#e8e7e7" d="M297.2,455.6c50.6,0,91.8-41.2,91.8-91.8S347.9,272,297.2,272c-50.6,0-91.8,41.2-91.8,91.8
		S246.6,455.6,297.2,455.6z"/>
	<path display="none" fill="#e8e7e7" d="M297.2,455.6H189.4c0,0,16-21.9,16-91.8s91.8,0,91.8,0V455.6z"/>
	<path display="none" fill="#e8e7e7" d="M297.2,455.6H405c0,0-16-21.9-16-91.8s-91.8,0-91.8,0L297.2,455.6z"/>
</g>
<rect x="205.4" y="363.8" fill="#e8e7e7" width="183.6" height="91.8"/>
</svg>
