<?xml version="1.0" standalone="no"?>
<!DOCTYPE svg PUBLIC "-//W3C//DTD SVG 1.1//EN" "http://www.w3.org/Graphics/SVG/1.1/DTD/svg11.dtd">
<svg xmlns="http://www.w3.org/2000/svg">
<metadata>Generated by Fontastic.me</metadata>
<defs>
<font id="shore-icons" horiz-adv-x="512">
<font-face font-family="shore-icons" units-per-em="512" ascent="480" descent="-32"/>
<missing-glyph horiz-adv-x="512" />

<glyph glyph-name="action-sheet-call" unicode="&#57856;" d="M496 100l-106 102c-1 1-4 3-5 3-3 0-4-2-6-3l-39-45c-8-7-19-9-29-9-2 0-2 0-3 0-21 0-55 9-103 55-88 86-49 128-47 130l39 44c3 3 3 8 0 11l-105 102c-3 2-4 2-7 2-1 0-4 0-5-1l-40-46c-4-4-100-102 106-300 108-104 187-125 235-125 1 0 4 0 5 0 26 0 51 9 71 25l40 45c1 1 2 4 2 5-1 1-1 4-3 5z m-136 40l26 30 79-76-26-31c-15-12-35-18-53-18-1 0-3 0-4 0l-3 0c-42 0-114 21-216 119-100 97-123 166-123 205 0 39 17 55 19 56l29 33 79-77-28-31c-4-4-17-21-17-49 0-36 22-75 66-116 44-41 83-62 120-64 1 0 1 0 3 0 16 0 31 6 45 15"/>
<glyph glyph-name="action-sheet-delete" unicode="&#57857;" d="M212 123l29 0 0 207-29 0z m59 0l29 0 0 207-29 0z m205 324l-69 0c-7 0-12 0-19 0l-28 0c0 32-27 59-60 59l-88 0c-33 0-60-27-60-59l-28 0c-7 0-12 0-19 0l-69 0 0-30 22 0c0 0 0-1 0-1l37-352c0-33 26-59 59-59l206 0c32 0 59 26 59 59l36 352c0 0 0 1 0 1l23 0 0 30z m-264 29l88 0c17 0 30-12 30-29l-148 0c0 17 14 29 30 29z m176-411c0-17-13-29-30-29l-206 0c-16 0-29 12-29 29l-37 352c0 0 0 2 0 2l337 0c0 0 0-2 0-2z"/>
<glyph glyph-name="action-sheet-favourite" unicode="&#57858;" d="M510 315c-2 5-5 7-10 8l-163 20-70 149c-1 5-6 8-11 8-5 0-9-3-11-8l-70-149-163-20c-5 0-8-3-10-8-1-5 0-10 4-13l119-112-30-163c-1-5 1-10 5-12 4-3 9-4 14-1l142 78 142-78c3-2 4-2 7-2 2 0 5 2 7 3 4 2 6 7 5 12l-31 162 119 112c5 4 6 9 5 14z m-145-113c-3-2-5-7-4-11l27-142-126 70c-2 1-4 1-6 1-2 0-4 0-6-1l-125-70 27 142c2 4 0 9-3 11l-105 99 142 17c4 0 8 4 10 8l61 131 61-131c2-4 5-6 10-8l143-17z"/>
<glyph glyph-name="add" unicode="&#57859;" d="M238 444l0-161-160 0 0-35 160 0 0-160 35 0 0 160 161 0 0 35-161 0 0 161z"/>
<glyph glyph-name="appointment-detail-accept" unicode="&#57860;" d="M208 136l203 228-22 21-186-209-85 85-21-22 86-86 0 0 21-22 1 1 0-1z"/>
<glyph glyph-name="appointment-detail-add-customer" unicode="&#57861;" d="M352 288c38 0 68 31 68 68 0 38-30 69-68 69-38 0-68-31-68-69 0-37 30-68 68-68z m0 110c23 0 42-19 42-41 0-23-19-42-42-42-22 0-41 19-41 42 0 22 19 41 41 41z m-159-104c43 0 79 35 79 78 0 44-36 79-79 79-44 0-79-35-79-79 0-43 35-78 79-78z m0 131c29 0 52-24 52-53 0-29-23-52-52-52-29 0-52 23-52 52 0 29 23 53 52 53z m116-280l-278 0 0 41c0 21 85 64 151 64l22 0c56 0 126-31 145-53l30 0c-5 16-24 33-53 48 2 0 3 0 5 0l43 0c55 0 107-26 107-42l0-16 27-1 0 28c0 30-74 57-156 57-25 0-50-2-73-8-28 8-57 12-87 12-62 0-109-19-132-31-34-19-56-41-56-59l0-59c0-4 4-8 8-8l297 0z m97-84l0 57-57 0 0 27 57 0 0 57 27 0 0-57 58 0 0-27-58 0 0-57z"/>
<glyph glyph-name="appointment-detail-edit" unicode="&#57862;" d="M119 173l0-54 54 0 167 167-54 54z m264 179l-34 34c-5 5-13 5-18 0l-27-28 54-54 28 27c5 5 2 16-3 21z"/>
<glyph glyph-name="appointment-detail-menu" unicode="&#57863;" d="M256 349c17 0 30 13 30 30 0 17-13 31-30 31-17 0-30-14-30-31 0-17 13-30 30-30z m0-62c-17 0-30-14-30-31 0-17 13-31 30-31 17 0 30 14 30 31 0 17-13 31-30 31z m0-124c-17 0-30-13-30-30 0-17 13-31 30-31 17 0 30 14 30 31 0 17-13 30-30 30z"/>
<glyph glyph-name="appointment-detail-move" unicode="&#57864;" d="M432 178l-82 83-21-22 47-47-283 0 0-30 283 0-47-48 21-21 82 82-2 2z m-270 73l22 22-48 47 283 0 0 30-283 0 47 48-21 21-82-82 2-2-2-1z"/>
<glyph glyph-name="appointment-detail-notification-info" unicode="&#57865;" d="M256 187c7 0 13 6 13 13l0 193c0 7-6 13-13 13-7 0-13-6-13-13l0-193c0-7 6-13 13-13z m0 322c-140 0-253-113-253-253 0-140 113-253 253-253 140 0 253 113 253 253 0 140-113 253-253 253z m0-489c-130 0-236 106-236 236 0 130 106 236 236 236 130 0 236-106 236-236 0-130-106-236-236-236z m4 120l-8 0c-7 0-13-5-13-13l0-8c0-7 6-13 13-13l8 0c7 0 13 6 13 13l0 8c0 8-6 13-13 13z"/>
<glyph glyph-name="appointment-detail-notification-success" unicode="&#57872;" d="M256 509c-140 0-253-113-253-253 0-140 113-253 253-253 140 0 253 113 253 253 0 140-113 253-253 253z m0-489c-130 0-236 106-236 236 0 130 106 236 236 236 130 0 236-106 236-236 0-130-106-236-236-236z m87 322l-133-170-63 63c-4 4-12 4-16 0-2-2-3-5-3-8 0-3 1-5 3-7l70-70c1-1 2-2 4-3 1-1 3-1 4-1 3 0 6 1 8 3l141 177c2 3 3 5 3 8 0 3-1 6-3 8-4 4-11 4-15 0z"/>
<glyph glyph-name="appointment-detail-reject" unicode="&#57873;" d="M372 355l-21 21-97-97-97 97-21-21 97-97-97-97 21-21 97 97 97-97 21 21-97 97z"/>
<glyph glyph-name="delete-01" unicode="&#57874;" d="M117 376l115-114-114-114 25-24 113 113 113-113 25 24-114 114 114 114-24 24-114-114-114 114z"/>
<glyph glyph-name="confirm" unicode="&#57875;" d="M419 396c-3 3-8 3-10 0l-211-226-97 99c-3 2-8 2-10 0l-12-13c-3-3-3-8 0-11l116-118c3-2 7-2 10 0l12 13c1 1 2 3 2 5l213 228c3 3 3 8 0 10z"/>
<glyph glyph-name="collapse" unicode="&#57876;" d="M349 256l-147-147-34 35 113 113-118 110 37 36z"/>
<glyph glyph-name="calendar-today" unicode="&#57877;" d="M390 472l0 37-25 0 0-37-221 0 0 37-25 0 0-37-111 0 0-467 493 0 0 467z m86-443l-443 0 0 296 443 0z m0 320l-443 0 0 99 86 0 0-37 25 0 0 37 222 0 0-37 24 0 0 37 86 0z m-345-160c21 0 37 17 37 37 0 21-16 37-37 37-20 0-37-17-37-37 0-20 17-37 37-37z"/>
<glyph glyph-name="chat" unicode="&#57878;" d="M479 138l-258 0-127-88 0 88-61 0c-8 0-14 6-14 13l0 298c0 7 6 13 14 13l446 0c8 0 14-6 14-13l0-298c0-7-6-13-14-13z m-5 296c0 4-4 7-7 7l-421 0c-4 0-7-3-7-7l0-272c0-3 3-7 7-7l70 0 0-64 91 64 260 0c3 0 7 4 7 7z m-73-136l-290 0c-5 0-10 4-10 10 0 5 5 9 10 9l290 0c5 0 10-4 10-9 0-6-5-10-10-10z m-174 51l-116 0c-5 0-10 4-10 10 0 5 5 9 10 9l116 0c6 0 10-4 10-9 0-6-4-10-10-10z m-116-80l184 0c5 0 9-4 9-10 0-5-4-9-9-9l-184 0c-5 0-10 4-10 9 0 6 5 10 10 10z"/>
<glyph glyph-name="calendar-list" unicode="&#57879;" d="M402 333l-295 0 0-25 295 0z m-381 160l0-468 467 0 0 468z m443-443l-419 0 0 418 419 0z m-62 160l-295 0 0-25 295 0z"/>
<glyph glyph-name="calendar-filter" unicode="&#57880;" d="M21 493l0-468 467 0 0 468z m443-443l-419 0 0 418 419 0z"/>
<glyph glyph-name="bell" unicode="&#57881;" d="M345 18l-8 7c-30 38 65 148 111 201l11 13c52 59 52 149-1 207l44 48c5 4 5 10 0 15-4 4-11 4-15 0l-46-48c-63 49-151 42-206-15l-12-12c-49-50-151-155-190-127l-8 6c-4 4-11 4-15-1-5-4-5-11 1-15l119-111c-20-22-18-57 4-77 21-21 56-19 77 3l119-111c5-4 11-3 16 1 3 6 3 12-1 16z m-150 109c-12-14-34-15-48-2-14 13-15 34-2 48 0 0 0 1 1 1l1 1z m-136 155c55 9 128 83 179 135l12 12c49 54 132 58 185 9 53-49 57-131 9-185 0 0-2-1-2-1l-10-13c-48-55-117-134-122-190z"/>
<glyph glyph-name="backend-nav-employees" unicode="&#57440;" d="M127 265c29 0 52 23 52 52 0 29-23 53-52 53-29 0-53-24-53-53 0-29 24-52 53-52z m0 87c19 0 34-16 34-35 0-19-15-35-34-35-20 0-35 16-35 35 0 19 15 35 35 35z m0-105c-68 0-122-22-122-43l0-41c0-1 1-3 3-3l103 0 0 17-89 0 0 18c0 14 44 35 87 35l35 0c7 0 15-1 22-2 9 4 18 7 29 10-20 6-43 9-68 9z m129 18c34 0 61 27 61 61 0 34-27 61-61 61-34 0-61-27-61-61 0-34 27-61 61-61z m0 104c24 0 44-19 44-43 0-24-20-44-44-44-24 0-43 20-43 44 0 24 19 43 43 43z m131-104c29 0 52 23 52 52 0 29-23 53-52 53-29 0-53-24-53-53 0-29 24-52 53-52z m0 87c19 0 35-16 35-35 0-19-16-35-35-35-19 0-35 16-35 35 0 19 16 35 35 35z m0-105c-25 0-49-3-68-9-19 5-41 8-64 8-80 0-147-43-147-70l0-47c0-2 1-4 4-4l287 0c2 0 4 2 4 4l0 31 103 0c2 0 3 1 3 3l0 41c0 21-55 43-122 43z m0-104l-262 0 0 34c0 19 71 53 122 53l18 0c53 0 122-34 122-53z m105 34l-89 0 0 3c0 15-21 34-55 48 7 1 14 2 21 2l35 0c44 0 88-21 88-35z"/>
<glyph glyph-name="back" unicode="&#57889;" d="M312 403l37-36-118-110 113-113-34-35-147 147z"/>
<glyph glyph-name="back-1" unicode="&#57890;" d="M385 273l-202 0 95 95-21 21-130-129 2-2-2-1 130-130 21 21-95 95 202 0z"/>
<glyph glyph-name="appointmentsuccess" unicode="&#57891;" d="M353 260c-58 0-105-47-105-105 0-58 47-105 105-105 57 0 104 47 104 105 0 58-47 105-104 105z m0-193c-49 0-89 40-89 88 0 49 40 88 89 88 48 0 88-39 88-88 0-48-40-88-88-88z m47 128c-3 3-9 3-12 0l-55-68-24 23c-3 4-9 4-13 0-1-1-2-4-2-6 0-3 1-6 2-6l30-29c1-1 2-2 3-2 1-1 3-1 3-1 3 0 5 1 7 2l61 75c1 2 2 3 2 6 1 2 0 4-2 6z m-360-41c-9 0-16 8-16 17l0 222 338 0 0-111c6-1 13-2 19-3l0 180c0 19-15 34-34 34l-45 0 0 12c0 4-3 7-7 7l-5 0c-4 0-7-3-7-7l0-12-180 0 0 12c0 4-2 7-6 7l-7 0c-4 0-7-3-7-7l0-12-45 0c-19 0-34-15-34-34l0-291c0-19 15-34 34-34l189 0c-1 7-2 13-2 20l-185 0z m-16 302c0 9 7 17 16 17l43 0 0-14c0-3 3-7 7-7l7 0c3 0 6 4 6 7l0 14 179 0 0-14c0-3 3-7 7-7l6 0c4 0 7 4 7 7l0 14 43 0c9 0 17-8 17-17l0-44-338 0z"/>
<glyph glyph-name="appointmenterror" unicode="&#57892;" d="M40 154c-9 0-16 8-16 17l0 222 338 0 0-111c6-1 13-2 19-3l0 180c0 19-15 34-34 34l-45 0 0 12c0 4-3 7-7 7l-5 0c-4 0-7-3-7-7l0-12-180 0 0 12c0 4-2 7-6 7l-7 0c-4 0-7-3-7-7l0-12-45 0c-19 0-34-15-34-34l0-291c0-19 15-34 34-34l189 0c-1 7-2 13-2 20l-185 0z m-16 302c0 9 7 17 16 17l43 0 0-14c0-3 3-7 7-7l7 0c3 0 6 4 6 7l0 14 179 0 0-14c0-3 3-7 7-7l6 0c4 0 7 4 7 7l0 14 43 0c9 0 17-8 17-17l0-44-338 0z m370-265c0 1 0 3-2 5-3 2-8 2-10 0l-30-30-31 30c-2 3-6 3-10 0-1-1-1-3-1-5 0-1 1-3 1-5l31-30-30-30c-1-2-1-3-1-5 0-2 0-3 2-5 3-3 7-3 10 0l30 30 30-30c1-2 3-3 5-3 1 0 3 1 5 2 2 3 2 8 0 10l-30 30 30 30c1 1 1 3 1 6z m-41 69c-58 0-105-47-105-105 0-58 47-105 105-105 57 0 104 47 104 105 0 58-47 105-104 105z m0-193c-49 0-89 40-89 88 0 49 40 88 89 88 48 0 88-39 88-88 0-48-40-88-88-88z"/>
<glyph glyph-name="delete-02" unicode="&#57893;" d="M256 443c-98 0-178-80-178-178 0-99 80-179 178-179 99 0 179 80 179 179 0 98-80 178-179 178z m60-224c4-4 4-10 0-14-2-2-4-3-7-3-2 0-5 1-7 3l-46 46-46-46c-1-2-4-3-6-3-3 0-5 1-7 3-4 4-4 10 0 14l46 46-46 46c-4 4-4 10 0 14 3 3 10 3 13 0l46-46 47 46c3 3 9 3 13 0 4-4 4-10 0-14l-46-46z"/>
<glyph glyph-name="expand" unicode="&#57894;" d="M256 163l-147 147 35 34 113-113 110 118 36-37z"/>
<glyph glyph-name="hamburger" unicode="&#57895;" d="M108 234l295 0 0 28-295 0z m0-86l295 0 0 28-295 0z m0 200l0-28 295 0 0 28z"/>
<glyph glyph-name="import" unicode="&#57896;" d="M296 363l0-16 98 0 0-277-278 0 0 277 98 0 0 16-114 0 0-310 310 0 0 310z m-110-111c-1-1-2-4 0-5l68-69c2-2 4-2 6 0l6 6c0 1 1 2 1 2l61 62c2 1 2 4 0 5l-7 7c-1 1-3 1-5 0l-53-53 0 261-16 0 0-259-49 50c-2 2-4 2-6 0z"/>
<glyph glyph-name="import-contacts" unicode="&#57897;" d="M455 227l0-199-397 0 0 199-23 0 0-222 443 0 0 222z m-200-116c2-2 6-2 8 0l9 10c0 1 1 2 1 3l88 88c2 2 2 6 0 8l-10 9c-2 3-5 3-7 1l-76-76 0 353-24 0 0-350-70 71c-2 2-6 2-8 0l-9-9c-2-3-2-6 0-8z"/>
<glyph glyph-name="logout" unicode="&#57904;" d="M290 474c-92 0-170-58-202-138l21 0c31 69 100 118 181 118 109 0 197-88 197-197 0-109-88-197-197-197-81 0-150 48-181 118l-21 0c32-81 110-138 202-138 120 0 217 97 217 217 0 119-97 217-217 217z m-20-208l-266 0 0-19 266 0z"/>
<glyph glyph-name="menu" unicode="&#57905;" d="M133 286c-17 0-31-13-31-30 0-17 14-30 31-30 17 0 31 13 31 30 0 17-14 30-31 30z m123-60c17 0 31 13 31 30 0 17-14 30-31 30-17 0-31-13-31-30 0-16 14-30 31-30z m123 0c17 0 31 13 31 30 0 17-14 30-31 30-17 0-30-13-30-30 0-16 13-30 30-30z"/>
<glyph glyph-name="mobile-attachment" unicode="&#57906;" d="M106 79c-33 0-61 28-61 61l0 182c0 30 21 55 50 60 1 10 10 18 20 18l50 0c9 0 17-8 19-17l1 0 47 46c2 2 4 4 7 4l83 0c3 0 6-2 8-4l47-46 29 0c33 0 60-27 60-61l0-182c0-34-27-61-60-61l-300 0z m11 293c0-6-5-11-11-11-21 0-38-17-38-39l0-182c0-21 17-39 38-39l300 0c21 0 38 18 38 39l0 182c0 22-17 39-38 39l-34 0c-3 0-5 1-7 3l-47 47-74 0-47-47c-2-2-4-3-7-3l-17 0c-6 0-11 5-11 11l0 6-45 0z m164-262c-67 0-121 55-121 121 0 67 54 121 121 121 67 0 121-54 121-121 0-66-54-121-121-121z m0 220c-55 0-99-44-99-99 0-54 44-99 99-99 55 0 99 45 99 99 0 55-44 99-99 99z m0-184c-47 0-86 38-86 85 0 47 39 86 86 86 47 0 86-39 86-86 0-47-39-85-86-85z m0 149c-35 0-64-29-64-64 0-35 29-63 64-63 35 0 64 28 64 63 0 35-29 64-64 64z"/>
<glyph glyph-name="mobile-attachment-file" unicode="&#57907;" d="M170 97c-23 0-44 9-60 25-15 16-24 37-24 60 0 23 8 45 24 61l125 128c2 3 5 4 8 4 4 0 7-1 9-4 2-2 3-5 3-8 0-3-1-6-3-8l-125-129c-11-11-18-27-18-44 0-16 7-32 18-44 11-11 27-18 43-18 16 0 31 7 42 18l179 184c7 8 12 18 12 29 0 11-5 21-12 29-7 7-17 12-28 12-10 0-20-5-28-12l-142-147c-4-3-6-8-6-13 0-6 2-10 6-14 3-4 8-5 13-5 5 0 10 2 13 5l89 91c2 2 5 4 8 4 3 0 6-2 8-4 2-2 4-5 4-8 0-3-2-6-4-9l-88-91c-8-8-19-12-30-12-11 0-22 4-30 12-8 8-12 19-12 31 0 11 4 22 12 30l143 147c11 12 27 18 44 18 17 0 33-6 45-18 12-13 18-29 18-46 0-17-6-33-18-46l-179-183c-16-16-37-25-59-25z"/>
<glyph glyph-name="mobile-calendar" unicode="&#57908;" d="M377 398l-40 0 0 10c0 5-5 10-10 10-6 0-10-5-10-10l0-10-122 0 0 10c0 5-4 10-10 10-5 0-10-5-10-10l0-10-40 0c-23 0-41-18-41-41l0-222c0-23 18-41 41-41l242 0c23 0 41 18 41 41l0 222c0 23-18 41-41 41z m21-264c0-11-9-20-20-20l-243 0c-12 0-21 9-21 20l0 142 284 0z m0 162l-284 0 0 61c0 11 9 20 21 20l40 0 0-10c0-5 5-10 10-10 6 0 10 5 10 10l0 10 122 0 0-10c0-5 4-10 10-10 6 0 10 5 10 10l0 10 41 0c11 0 20-9 20-20z"/>
<glyph glyph-name="mobile-customer" unicode="&#57909;" d="M257 267c42 0 76 35 76 77 0 42-34 77-76 77-43 0-77-35-77-77 0-42 34-77 77-77z m0 132c30 0 55-25 55-55 0-31-25-55-55-55-30 0-55 24-55 55 0 30 25 55 55 55z m-1-155c-101 0-186-55-186-89l0-58c0-3 2-6 5-6l361 0c3 0 6 3 6 6l0 63c0 33-83 84-186 84z m165-131l-329 0 0 44c0 23 89 66 154 66l22 0c67 0 154-43 154-66l0-44z m0 0"/>
<glyph glyph-name="mobile-customer-female" unicode="&#57910;" d="M256 203c-87 0-142-46-142-84l0-119 284 0 0 124c0 37-59 79-142 79z m79 102c0 44-36 79-79 79-44 0-79-35-79-79l0-79 158 0z"/>
<glyph glyph-name="mobile-customer-male" unicode="&#57911;" d="M256 226c43 0 79 36 79 79 0 44-36 79-79 79-44 0-79-35-79-79 0-43 35-79 79-79z m0-23c-87 0-142-46-142-84l0-119 284 0 0 124c0 37-59 79-142 79z"/>
<glyph glyph-name="mobile-search" unicode="&#57912;" d="M366 292c0 82-65 148-145 148-81 0-146-66-146-148 0-81 65-148 146-148 80 0 145 67 145 148z m-145-126c-69 0-125 56-125 127 0 70 56 126 125 126 69 0 125-56 125-126 0-71-56-127-125-127z m199-43l-44 45c-9 10-23 12-35 6-4 5-11 5-15 0-4-4-4-10 0-15-5-11-3-26 6-36l44-44c13-13 32-13 44 0 13 12 13 32 0 44z m-14-29c-4-5-11-5-15 0l-44 44c-4 5-4 11 0 15 4 4 11 4 15 0l44-44c4-5 4-11 0-15z"/>
<glyph glyph-name="mobile-responsability" unicode="&#57913;" d="M256 92c-90 0-164 74-164 164 0 91 74 164 164 164 90 0 164-74 164-164 0-91-74-164-164-164z m0 304c-77 0-140-63-140-140 0-77 63-140 140-140 77 0 140 63 140 140 0 77-63 140-140 140z m0-256c-9 0-16 7-16 16 0 9 7 16 16 16 9 0 16-7 16-16 0-9-7-16-16-16z m0 55c-9 0-16 7-16 16l0 144c0 8 7 16 16 16 9 0 16-7 16-16l0-144c0-9-7-16-16-16z"/>
<glyph glyph-name="mobile-resource" unicode="&#57920;" d="M439 367c0 1-1 2-1 3 0 3-1 5-3 7-2 2-5 3-8 3-3 0-6-1-8-3l-51-51-41 41 51 52c4 4 4 11 0 15-2 2-4 3-6 3 0 0-1 1-1 1-11 4-23 5-34 5-29 0-55-11-76-31-27-28-37-68-27-106 0 0 0-1 0-1l-149-149c0 0-1-1-1-1-10-10-16-23-16-36 0-14 5-27 15-37 9-9 22-14 36-14l1 0c12 0 24 4 32 11 2 1 3 2 4 3l150 150c1 1 1 1 1 1 10-3 20-4 30-4 28 0 55 11 75 31 28 28 39 69 27 107z m-298-269l0-1c-6-5-13-9-21-9l-1 0c-7 0-15 3-20 9-6 6-9 13-9 21 0 8 3 15 9 21 0 0 0 0 0 0l144 145c5-9 11-17 18-24 7-7 15-13 24-18z m256 178c-16-16-37-25-60-25-23 0-44 9-60 25-33 33-33 87 0 120 16 16 37 25 60 25 4 0 7 0 11 0l-45-46c-2-2-3-5-3-8 0-3 1-5 3-7l57-58c2-2 5-3 8-3 3 0 6 1 8 3l45 45c3-26-5-52-24-71z"/>
<glyph glyph-name="mobile-phone" unicode="&#57921;" d="M172 80c-16 0-30 13-30 29l0 294c0 16 14 29 30 29l168 0c16 0 29-13 29-29l0-294c0-16-13-29-29-29z m0 330c-4 0-7-3-7-7l0-294c0-4 3-7 7-7l168 0c4 0 7 3 7 7l0 294c0 4-3 7-7 7l-168 0z m86-296c-16 0-29 14-29 30 0 16 13 30 29 30 17 0 30-14 30-30 0-16-13-30-30-30z m0 42c-7 0-12-5-12-12 0-7 5-12 12-12 7 0 13 5 13 12 0 7-6 12-13 12z"/>
<glyph glyph-name="mobile-number-of-people" unicode="&#57922;" d="M190 267c43 0 77 35 77 77 0 42-34 76-77 76-42 0-76-34-76-76 0-42 34-77 76-77z m1 131c30 0 54-24 54-55 0-30-24-54-54-54-31 0-55 24-55 54 0 31 24 55 55 55z m164-153c-32 0-61-4-86-11-24 6-51 10-79 10-101 0-186-54-186-89l0-58c0-3 2-5 5-5l361 0c3 0 5 2 5 5l0 38 129 0c2 0 4 2 4 5l0 50c0 27-69 55-153 55z m0-131l-329 0 0 43c0 24 89 66 154 66l22 0c66 0 153-43 153-66z m131 43l-111 0 0 3c0 19-27 44-70 61 1 0 1 0 1 0 9 1 18 2 27 2l44 0c55 0 109-25 109-44z m-131 110c36 0 66 30 66 66 0 36-30 66-66 66-37 0-66-30-66-66 0-36 29-66 66-66z m0 110c24 0 44-20 44-44 0-24-20-44-44-44-24 0-44 20-44 44 0 24 20 44 44 44z"/>
<glyph glyph-name="mobile-new-customer" unicode="&#57923;" d="M226 267c43 0 77 35 77 77 0 42-34 77-77 77-42 0-76-35-76-77 0-42 34-77 76-77z m1 132c30 0 54-25 54-55 0-31-24-55-54-55-31 0-55 24-55 55 0 30 24 55 55 55z m-1-155c-101 0-186-55-186-89l0-58c0-3 2-6 5-6l361 0c3 0 6 3 6 6l0 63c0 33-84 84-186 84z m165-131l-329 0 0 44c0 23 89 66 154 66l22 0c66 0 153-43 153-66z m26 206l0 56-21 0 0-56-56 0 0-20 56 0 0-56 21 0 0 56 55 0 0 20z m0 0"/>
<glyph glyph-name="mobile-message" unicode="&#57924;" d="M395 371l-278 0c-12 0-23-10-23-23l0-184c0-13 11-23 23-23l278 0c12 0 23 10 23 23l0 184c0 13-11 23-23 23z m-269-19l260 0c4 0 8-2 10-6l-140-102-140 102c2 4 6 6 10 6z m79-92l-91-88 0 154z m-78-100l92 89 28-20c3-2 6-2 9-1 3-1 6-1 9 1l28 20 92-89z m271 12l-91 88 91 66z m0 0"/>
<glyph glyph-name="mobile-logout" unicode="&#57925;" d="M285 457l0-20c101-14 180-102 180-207 0-115-94-208-209-208-115 0-209 93-209 208 0 105 78 193 180 207l0 20c-112-14-200-110-200-227 0-126 103-229 229-229 126 0 229 103 229 229 0 117-88 213-200 227z m-18 42l-22 0 0-263 22 0z"/>
<glyph glyph-name="mobile-location" unicode="&#57926;" d="M256 93c-2 0-4 1-5 3 0 0 0 0-1 1-26 30-110 133-110 211 0 53 44 111 116 111 32 0 62-13 84-35 21-21 32-48 32-75 0-36-17-80-51-133-16-26-38-54-59-79-1-1-1-1-1-1-1-2-3-3-5-3z m0 304c-24 0-49-9-67-26-18-17-28-40-28-63 0-63 57-137 84-173 5-6 8-11 11-15 3 4 6 9 11 15 27 36 84 111 84 173 0 49-43 89-95 89z m0-144c-25 0-46 21-46 46 0 26 21 47 46 47 25 0 46-21 46-47 0-25-21-46-46-46z m0 72c-14 0-25-12-25-26 0-14 11-25 25-25 14 0 25 11 25 25 0 14-11 26-25 26z"/>
<glyph glyph-name="mobile-info" unicode="&#57927;" d="M256 92c-90 0-164 74-164 164 0 91 74 164 164 164 90 0 164-74 164-164 0-91-74-164-164-164z m0 304c-77 0-140-63-140-140 0-77 63-140 140-140 77 0 140 63 140 140 0 77-63 140-140 140z m-15-75c0 4 2 8 4 10 2 3 6 4 10 4 5 0 8-1 11-4 2-2 3-5 3-10 0-4-1-7-3-10-3-2-6-4-11-4-4 0-8 2-10 4-2 2-4 6-4 10z m27-147l-25 0 0 116 25 0z"/>
<glyph glyph-name="mobile-homepage" unicode="&#57928;" d="M190 105l0 17c0 4 3 7 7 7l118 0c4 0 7-3 7-7l0-17z m52 33l0 28-133 0c-7 0-14 7-14 14l0 209c0 7 7 13 14 13l294 0c7 0 14-6 14-13l0-209c0-7-7-14-14-14l-133 0 0-28z m-118 241c0 0-2 0-2-1l0-187c0-1 2-1 2-1l264 0c0 0 2 0 2 1l0 187c0 1-2 1-2 1z"/>
<glyph glyph-name="mobile-feedback" unicode="&#57929;" d="M388 424l-264 0c-5 0-9-5-9-10l0-316c0-5 4-10 9-10l264 0c5 0 9 5 9 10l0 316c0 5-4 10-9 10z m-9-318l-246 0 0 300 246 0z m-208 106l169 0c2 0 4 2 4 4l0 10c0 2-2 4-4 4l-169 0c-2 0-4-2-4-4l0-10c0-2 2-4 4-4z m0 53l169 0c2 0 4 2 4 4l0 10c0 2-2 4-4 4l-169 0c-2 0-4-2-4-4l0-10c0-2 2-4 4-4z m0 53l169 0c2 0 4 2 4 4l0 10c0 2-2 4-4 4l-169 0c-2 0-4-2-4-4l0-10c0-2 2-4 4-4z m0-159l63 0c2 0 4 2 4 4l0 10c0 2-2 4-4 4l-63 0c-2 0-4-2-4-4l0-10c0-3 2-4 4-4z"/>
<glyph glyph-name="mobile-decrease" unicode="&#57936;" d="M74 238l0 36 364 0 0-36z"/>
<glyph glyph-name="mobile-service" unicode="&#57937;" d="M109 123c-20 0-36 17-36 37 0 20 16 36 36 36 20 0 36-16 36-36 0-20-16-37-36-37z m0 51c-8 0-14-6-14-14 0-8 6-15 14-15 8 0 14 7 14 15 0 8-6 14-14 14z m91-25c-6 0-11 5-11 11 0 6 5 11 11 11l228 0c7 0 11-5 11-11 0-6-4-11-11-11z m-91 71c-20 0-36 16-36 36 0 20 16 36 36 36 20 0 36-16 36-36 0-20-16-36-36-36z m0 50c-8 0-14-6-14-14 0-8 6-14 14-14 8 0 14 6 14 14 0 8-6 14-14 14z m91-25c-6 0-11 5-11 11 0 6 5 11 11 11l228 0c7 0 11-5 11-11 0-6-4-11-11-11z m-91 71c-20 0-36 16-36 36 0 20 16 37 36 37 20 0 36-17 36-37 0-20-16-36-36-36z m0 51c-8 0-14-7-14-15 0-8 6-14 14-14 8 0 14 6 14 14 0 8-6 15-14 15z m91-26c-6 0-11 5-11 11 0 6 5 11 11 11l228 0c7 0 11-5 11-11 0-6-4-11-11-11z"/>
<glyph glyph-name="mobile-steps" unicode="&#57938;" d="M422 202l-332 0c-5 0-9 5-9 10 0 6 4 10 9 10l332 0c5 0 9-5 9-10 0-5-4-10-9-10z m0 44l-332 0c-5 0-9 5-9 10 0 5 4 10 9 10l332 0c5 0 9-5 9-10 0-5-4-10-9-10z m0 44l-332 0c-5 0-9 4-9 10 0 5 4 10 9 10l332 0c5 0 9-5 9-10 0-6-4-10-9-10z"/>
<glyph glyph-name="mobile-subject" unicode="&#57939;" d="M400 237l-137-137c-6-7-15-10-24-10-10 0-19 3-25 10l-109 109c-7 6-15 20-15 30 0 9 8 23 15 30l137 136c12 13 36 17 54 17l91 0c20 0 35-15 35-35l0-91c0-18-10-47-22-59z m2 143c0 12-10 22-22 22l-87 0c-13 0-33-8-42-18l-129-129c-4-4-7-9-7-15 0-6 3-11 7-16l102-102c8-8 23-8 31 0l129 129c9 9 18 29 18 42l0 87z m-49-58c-17 0-30 13-30 30 0 17 13 30 30 30 17 0 30-13 30-30 0-17-13-30-30-30z m0 42c-7 0-12-5-12-12 0-7 5-12 12-12 7 0 12 5 12 12 0 7-5 12-12 12z"/>
<glyph glyph-name="mobile-time" unicode="&#57940;" d="M256 92c-90 0-164 74-164 164 0 91 74 164 164 164 90 0 164-74 164-164 0-91-74-164-164-164z m0 304c-77 0-140-63-140-140 0-77 63-140 140-140 77 0 140 63 140 140 0 77-63 140-140 140z m0-154c-7 0-13 6-13 13l0 101c0 8 6 14 13 14 8 0 14-6 14-14l0-87 51 0c8 0 14-7 14-14 0-7-6-13-14-13z"/>
<glyph glyph-name="mobile-transactions" unicode="&#57941;" d="M418 342c-4 50-83 76-162 76-79 0-158-27-162-76 0-1 0-1 0-2l0-167c0-52 82-79 162-79 80 0 162 28 162 79l0 167c0 1 0 1 0 2z m-162 55c58 0 109-15 130-36 3-3 5-7 7-10 2-3 3-7 3-10 0-1 0-1 0-2 0-13-10-25-28-35-8-4-16-8-25-11-15-5-32-8-48-10-26-3-52-3-79 0-16 2-32 5-47 10-9 3-17 7-25 11-18 9-29 22-29 35 0 1 0 1 0 2 1 3 1 7 3 10 2 4 5 7 8 10 22 21 71 36 130 36z m141-104l0-11c0-11-7-20-19-29l0 32c5 2 9 5 13 8 2 1 4 3 6 4l0-4z m-281 5c1-2 4-4 6-5 4-3 8-5 13-8l0-32c-12 9-19 19-19 30l0 15z m140-38c4 0 7 0 11 0l0-36c-4 0-8 0-11 0-4 0-7 0-11 0l0 36c4 0 7 0 11 0z m44 3l0-36c-7-1-14-2-22-2l0 36c8 0 15 1 22 2z m66-11l0-6c-7-4-14-7-21-9l0 35c7 2 14 5 21 8z m-54-21l0 33c7 1 14 3 21 4l0-35c-3-1-5-1-8-2-4-1-8-2-13-3l0 3z m-79 21l0-28c-7 1-14 1-21 2l0 36c8-1 14-1 21-2z m-87 0l0 27c7-3 14-6 21-8l0-34c-7 2-14 5-21 8z m34-19l0 36c6-2 13-3 21-4l0-36c-5 1-10 2-14 3-3 0-5 0-7 1z m-64-2l0 10c4-4 9-7 13-10 2-1 4-2 5-3l0-33c-11 9-18 19-18 30z m30-8c7-3 14-6 21-8l0-36c-7 3-14 6-21 9z m34-11c6-2 13-3 21-4l0-37c-8 2-15 4-21 5z m32-6c8-1 14-2 21-2l0-37c-7 0-14 1-21 2z m34-3c3 0 7 0 10 0 4 0 8 0 11 0l0-37c-3 0-7 0-11 0-3 0-7 0-10 0z m33 1c7 0 14 1 21 2l0-37c-7-1-14-1-21-2z m33 4c7 1 14 2 21 4l0-36c-7-2-14-4-21-5z m33 7c7 2 14 5 21 8l0-35c-7-3-14-7-21-9z m33 13c2 1 3 2 5 3 4 3 9 7 13 10l0-17c0-11-7-20-18-29z m-262-55l0 11c6-5 12-9 18-13l0-26c-11 8-18 18-18 28z m30-8c7-3 14-5 21-7l0-30c-7 2-14 5-21 8z m34-11c6-1 13-3 21-4l0-30c-8 2-15 3-21 5z m32-6c8-1 14-1 21-2l0-31c-7 1-14 1-21 2z m34-33l0 31c3 0 7 0 10 0 4 0 8 0 11 0l0-31c-3 0-7 0-11 0-3 0-7 0-10 0z m33 31c7 1 14 1 21 2l0-30c-7-1-14-2-21-2z m33 4c7 1 14 3 21 4l0-29c-7-2-14-4-21-5 0 0 0 30 0 30z m33 7c7 3 14 5 21 8l0-28c-7-4-14-7-21-9z m52 16c0-10-7-20-19-29l0 27c7 3 13 7 19 12z m-235 161l16 0c2-5 6-9 11-11 9-4 19-6 29-6 9 0 19 1 28 5 6 2 12 6 16 11l6 7 4 4c2 2 4 3 6 4 3 1 6 2 9 2 5 0 10-2 14-6 1-1 1-2 2-4 0-2 0-4 0-6l0-2c-1-1-1-3-2-5-2-3-4-6-7-8-1 0-1-1 0-2 2 0 4-1 5-1l18 0c1 0 3 1 5 1 2 3 4 5 5 9 1 2 2 5 2 8l20 0c2-1 4 0 6 2l0 6c-1 2-4 3-6 2l-22 0c-1 2-2 4-4 6-2 3-5 5-8 7-5 2-9 3-14 4-5 1-11 1-16 1-5 0-10 0-16-1-1 0-2-1-4-1-5-1-9-3-14-6-1-1-3-2-4-4-2-2-4-4-6-6l-4-4-4-6c-1-1-1-1-1-1-2-1-3-2-4-3-3-1-7-1-10-1-3 0-6 0-9 1 0 0 0 1-1 1-3 1-5 5-5 8 0 2 1 4 1 5 0 0 0 0 0 0 0 1 0 2 1 3 0 1 0 1 1 2 0 0 0 1 1 1 1 2 2 3 3 5 1 1 0 3-3 3l-15 3c-2 0-5 0-7-1-2-3-5-6-6-9-1-2-2-4-2-6l-15 0c-2 0-4-1-6-2l0-7c2-2 4-3 6-2z"/>
<glyph glyph-name="phone" unicode="&#57942;" d="M4 381c0-126 110-236 110-236 9-9 23-23 32-31 0 0 110-110 236-110 76 0 106 48 118 87 8 26 8 48 8 48 0 12-10 25-21 29l-99 33c-12 4-24-3-27-15 0 0-4-18-12-37-11-26-61-51-155 43-95 94-70 145-43 156 18 7 37 12 37 12 12 3 18 15 14 26l-33 100c-3 11-17 21-29 21 0 0-21-1-47-8-40-12-89-42-89-118z m95 98c22 7 41 7 41 7 3 0 8-4 9-7l33-99c-2 0-20-5-39-13-19-7-32-24-36-44-6-28 2-76 71-146 49-48 93-73 130-73 34 0 53 19 60 38 8 20 13 38 13 39l99-33c3-1 7-6 7-9 0 0 0-19-7-41-15-49-48-73-98-73-116 0-220 102-221 104-6 6-32 31-32 31-1 1-104 106-104 221 0 50 25 83 74 98z"/>
<glyph glyph-name="refresh" unicode="&#57943;" d="M496 267c-6 0-10-5-10-11 0-126-104-230-230-230-127 0-230 104-230 230 0 127 103 230 230 230 87 0 165-48 205-125l-101 0c-6 0-10-5-10-10 0-6 4-11 10-11l136 0 0 136c0 6-5 10-10 10-6 0-11-4-11-10l0-98c-44 79-127 129-219 129-139 0-251-112-251-251 0-138 112-251 251-251 138 0 251 113 251 251 0 6-5 11-11 11z"/>
<glyph glyph-name="send-message" unicode="&#57944;" d="M507 257l-502 207 98-207-98-207z m-453 160l366-149-295 0z m71-171l295 0-366-149z"/>
<glyph glyph-name="status-alternative" unicode="&#57945;" d="M201 251c3 2 3 5 0 7l-9 10c-2 2-5 2-7 0l-76-74c-3-2-3-5 0-7l74-74c2-2 6-2 8 0l9 9c3 2 3 5 0 8l-47 46 241 0 0 23-244 0z m126 155c-2 2-5 2-7 0l-9-10c-2-2-3-5 0-7l51-52-243 0 0-23 240 0-47-46c-2-3-2-6 0-8l9-9c3-2 6-2 8 0l75 74c2 2 2 5 0 7z m-71 103c-139 0-252-113-252-252 0-139 113-252 252-252 139 0 252 113 252 252 0 139-113 252-252 252z m0-482c-127 0-229 103-229 230 0 126 103 229 229 229 126 0 229-103 229-229 0-127-102-230-229-230z"/>
<glyph glyph-name="status-cancel" unicode="&#57952;" d="M256 509c-139 0-252-113-252-252 0-140 113-253 252-253 139 0 252 113 252 253 0 139-113 252-252 252z m0-482c-127 0-229 103-229 230 0 126 103 229 229 229 127 0 229-103 229-229 0-127-102-230-229-230z m78 319l-78-78-78 78-16-16 78-78-73-73 16-16 73 73 73-73 16 16-73 73 78 78z"/>
<glyph glyph-name="status-circle" unicode="&#57953;" d="M256 508c-139 0-252-113-252-252 0-139 113-252 252-252 139 0 252 113 252 252 0 139-113 252-252 252z m0-481c-127 0-229 103-229 229 0 127 103 229 229 229 126 0 229-103 229-229 0-126-102-229-229-229z"/>
<glyph glyph-name="action-sheet-edit" unicode="&#57954;" d="M72 48l-24 24 363 362-24 24-375-375-12-83 83 12 375 375-24 24z m417 443c-13 12-31 19-48 21l-34-36 70-71 35 36c-3 18-11 35-23 50z"/>
<glyph glyph-name="status-confirm" unicode="&#57955;" d="M364 347c-2 2-6 2-8 0l-153-165-71 72c-2 2-5 2-7 0l-9-10c-2-2-2-5 0-7l85-86c2-2 5-2 7 0l9 9c1 1 1 2 1 3l156 167c2 2 2 5 0 7z m-108 162c-139 0-252-113-252-252 0-140 113-253 252-253 139 0 252 113 252 253 0 139-113 252-252 252z m0-482c-127 0-229 103-229 230 0 126 103 229 229 229 126 0 229-103 229-229 0-127-102-230-229-230z"/>
<glyph glyph-name="backend-attachment" unicode="&#57346;" d="M161 82c-24 0-47 10-64 28-18 18-27 41-27 66 0 25 9 48 27 66l135 140c3 2 6 3 10 3 3 0 6-1 9-3 2-3 3-6 3-9 0-4-1-7-3-10l-136-139c-13-13-20-30-20-48 0-18 7-35 20-48 12-13 29-20 46-20 18 0 34 7 46 20l195 200c8 8 13 20 13 31 0 12-5 23-13 32-8 8-19 13-30 13-12 0-22-5-31-13l-155-160c-4-4-6-9-6-15 0-5 2-11 6-15 4-3 9-5 14-5 6 0 11 2 15 6l96 99c3 2 6 4 9 4 4 0 7-2 10-4 2-3 3-6 3-9 0-4-1-7-3-9l-97-100c-9-9-20-13-33-13-12 0-23 4-32 13-9 9-13 21-13 33 0 13 4 25 13 34l155 159c13 13 30 21 49 21 18 0 35-8 48-21 13-13 20-31 20-50 0-18-7-36-20-49l-194-200c-17-18-40-28-65-28z"/>
<glyph glyph-name="backend-attachment-1" unicode="&#57438;" d="M179 168l154 0 0 22-154 0z m110 264l-154 0c-12 0-22-10-22-22l0-308c0-12 10-22 22-22l242 0c12 0 22 10 22 22l0 220z m88-330l-242 0 0 308 132 0 0-99c0-6 5-11 11-11l99 0z m-88 220l0 88 88-88z m-110-88l154 0 0 22-154 0z m44 88l-44 0 0-22 44 0z"/>
<glyph glyph-name="backend-bday" unicode="&#57409;" d="M395 290l-27 0 0 57c19 5 34 26 34 50 0 26-29 59-34 65-2 3-5 4-9 4-3 0-6-1-8-4-5-6-34-39-34-65 0-22 12-41 29-48l0-59-81 0 0 57c19 5 34 26 34 50 0 26-29 59-35 65-2 3-5 4-8 4-3 0-6-1-8-4-6-6-34-39-34-65 0-22 12-41 28-48l0-59-81 0 0 57c20 5 34 26 34 50 0 26-28 59-34 65-4 5-12 5-16 0-6-6-35-39-35-65 0-22 12-41 29-48l0-59-22 0c-21 0-38-18-38-39l0-194c0-6 5-11 11-11l332 0c6 0 11 5 11 11l0 194c0 21-17 39-38 39z m-35 147c9-13 20-30 20-40 0-15-10-28-20-28-11 0-21 13-21 28 0 10 10 27 21 40z m-104 0c10-13 20-30 20-40 0-15-9-28-20-28-11 0-20 13-20 28 0 10 10 27 20 40z m-103 0c10-13 20-30 20-40 0-15-9-28-20-28-11 0-20 13-20 28 0 10 10 26 20 40z m-51-250c0 0 0-1 1-1l307 0c0 0 0 0 1 1l0-28-309 0z m15 80l278 0c9 0 16-8 16-16l0-41c0 0-1 0-1 0l-307 0c-1 0-1 0-1 0l0 41c0 8 7 16 15 16z m-15-198l0 67 309 0 0-67z"/>
<glyph glyph-name="backend-bookable" unicode="&#57347;" d="M75 151l0 154 308 0 0-44 22 0 0 132c0 25-19 45-44 45l-44 0 0 11c0 6-5 11-11 11-6 0-11-5-11-11l0-11-132 0 0 11c0 6-5 11-11 11-6 0-11-5-11-11l0-11-44 0c-25 0-44-20-44-45l0-242c0-24 19-44 44-44l66 0 0 22-66 0c-13 0-22 10-22 22z m0 242c0 13 10 22 22 22l44 0 0-11c0-6 5-11 11-11 6 0 11 5 11 11l0 11 132 0 0-11c0-6 5-11 11-11 6 0 11 5 11 11l0 11 44 0c12 0 22-9 22-22l0-66-308 0z m382-168c-5 5-13 5-17 0l-134-146-68 80c-5 5-12 5-17 0-2-2-4-5-4-8 0-3 2-6 4-8l76-88c3-2 6-3 9-3 3 0 6 1 8 3l143 154c4 4 4 12 0 16z"/>
<glyph glyph-name="backend-cal-settings" unicode="&#57348;" d="M377 234l0 110-309 0 0-176c0-13 10-22 22-22l163 0c-2-8-4-15-6-22l-157 0c-24 0-44 19-44 44l0 243c0 24 20 44 44 44l45 0 0 11c0 6 4 11 11 11 6 0 11-5 11-11l0-11 132 0 0 11c0 6 5 11 11 11 6 0 11-5 11-11l0-11 44 0c25 0 44-20 44-44l0-179c-7 1-14 2-22 2z m0 177c0 12-9 22-22 22l-44 0 0-11c0-7-5-11-11-11-6 0-11 4-11 11l0 11-132 0 0-11c0-7-5-11-11-11-6 0-11 4-11 11l0 11-44 0c-13 0-23-10-23-22l0-45 309 0 0 45z m89-227l0-33-35 0c-2-15-8-28-16-40l34-30-23-29-39 33c-11-7-23-13-37-15l0-35-33 0 0 35c-14 2-26 8-38 15l-38-33-24 29 35 30c-8 12-14 26-16 40l-35 0 0 33 34 0c3 15 9 28 17 40l-35 30 24 30 38-33c11 7 24 12 38 14l0 35 33 0 0-35c13-2 26-7 37-14l38 33 24-30-35-30c9-12 14-25 17-40l35 0z m-133 50c-36 0-66-30-66-66 0-37 30-67 66-67 37 0 67 30 67 67 0 36-30 66-67 66z"/>
<glyph glyph-name="backend-collapse" unicode="&#57349;" d="M151 135l80 81 0-71 22 0 0 109-109 0 0-22 72 0-81-82z m210 242l-80-81 0 71-22 0 0-109 109 0 0 22-72 0 81 82z"/>
<glyph glyph-name="backend-delete-02" unicode="&#57352;" d="M442 393l-31 0c4-8 6-16 6-25l-24-273c0-28-23-50-50-50l-174 0c-27 0-49 22-49 50l-25 273c0 9 2 17 7 25l-32 0 0 24 372 0z m-124 0l-174 0c-13 0-25-12-25-25l25-273c0-14 11-25 25-25l174 0c14 0 25 11 25 25l25 273c0 13-12 25-25 25z m-50-75l25 0 0-174-25 0z m-49 0l25 0 0-174-25 0z m74 124l-74 0c-14 0-25-11-25-25l-25 0c0 28 22 50 50 50l74 0c28 0 50-22 50-50l-25 0c0 14-11 25-25 25z"/>
<glyph glyph-name="backend-directory-bookable" unicode="&#57353;" d="M335 398l-158 0c-35 0-63-28-63-63l0-158c0-35 28-63 63-63l158 0c35 0 63 28 63 63l0 158c0 35-28 63-63 63z m31-221c0-17-14-31-31-31l-158 0c-17 0-31 14-31 31l0 95 220 0z m0 126l-220 0 0 32c0 17 14 31 31 31l0-15c0-9 7-16 16-16 9 0 16 7 16 16l0 15 94 0 0-15c0-9 7-16 16-16 9 0 16 7 16 16l0 15c17 0 31-14 31-31l0-32z"/>
<glyph glyph-name="backend-directory-status" unicode="&#57408;" d="M256 433c-98 0-178-79-178-177 0-98 80-178 178-178 98 0 178 80 178 178 0 98-80 177-178 177z m0-310c-74 0-133 59-133 133 0 73 59 133 133 133 73 0 133-60 133-133 0-74-59-133-133-133z"/>
<glyph glyph-name="backend-draft" unicode="&#57421;" d="M398 464l-240 0c-12 0-22-10-22-22l0-22-22 0c-12 0-22-10-22-22l0-328c0-12 10-22 22-22l241 0c12 0 21 10 21 22l0 22 22 0c12 0 22 10 22 22l0 328c0 12-10 22-22 22z m-44-394l-240 0 0 328 240 0z m44 44l-22 0 0 284c0 12-9 22-21 22l-197 0 0 22 240 0z"/>
<glyph glyph-name="backend-dragndrop" unicode="&#57354;" d="M425 223l-338 0c-5 0-9-5-9-11 0-7 4-12 9-12l338 0c5 0 9 5 9 12 0 6-4 11-9 11z m0 45l-338 0c-5 0-9-6-9-12 0-6 4-12 9-12l338 0c5 0 9 6 9 12 0 7-4 12-9 12z m-338 21l338 0c5 0 9 5 9 11 0 7-4 12-9 12l-338 0c-5 0-9-5-9-12 0-6 4-11 9-11z"/>
<glyph glyph-name="backend-edit" unicode="&#57416;" d="M377 242c-5 0-8-4-8-8l0-180-314 0 0 377 239 0c4 0 8 4 8 9 0 4-4 8-8 8l-248 0c-4 0-8-4-8-8l0-394c0-5 4-8 8-8l331 0c5 0 8 3 8 8l0 188c0 4-3 8-8 8z m94 192l-38 38c-3 3-8 3-11 0l-251-251c-1 0-1-1-2-2l-25-64c-1-3 0-7 2-9 2-2 4-3 6-3 1 0 2 1 3 1 37 15 53 21 61 25 2 0 4 1 5 2l250 251c4 3 4 9 0 12z m-287-260l-10 10 6 16 20-20z m31 15l-26 26 209 209 26-26z m221 221l-27 26 2 2 26-26z m13 13l-26 27 4 4 27-26z"/>
<glyph glyph-name="backend-expand" unicode="&#57355;" d="M267 377l0-22 72 0-182-182 0 72-22 0 0-110 110 0 0 22-72 0 182 182 0-72 22 0 0 110z"/>
<glyph glyph-name="backend-fail" unicode="&#57417;" d="M350 152c-3 0-6 1-8 3l-86 86-86-86c-4-4-11-4-15 0-2 2-4 5-4 8 0 3 2 5 4 7l86 86-86 86c-3 2-4 4-4 7 0 3 1 6 4 8 4 4 11 4 15 0l86-86 86 86c2 2 5 3 8 3 3 0 6-1 8-3 2-2 3-5 3-8 0-2-1-5-3-7l-87-86 87-85c2-2 3-5 3-8 0-3-1-6-4-8-2-2-4-3-7-3z m-80 105z m-14 240c-133 0-241-108-241-241 0-133 108-241 241-241 133 0 241 108 241 241 0 133-108 241-241 241z m0-460c-121 0-219 98-219 219 0 121 98 219 219 219 121 0 219-98 219-219 0-121-98-219-219-219z"/>
<glyph glyph-name="backend-favorites" unicode="&#57373;" d="M256 65c-4 0-8 2-11 4-1 2-41 38-83 81-54 55-86 96-95 121-18 49-15 95 9 129 21 29 55 46 93 46 5 0 10-1 15-1 36-4 58-20 72-35 14 15 36 31 71 35 6 0 11 1 16 1 38 0 72-17 93-46 24-34 27-80 9-129-21-56-152-178-178-202l-1 0c-2-2-6-4-10-4z m4 20z m-91 339c-31 0-58-13-75-37-20-28-23-67-7-109 6-15 26-47 91-113 34-36 67-66 78-76 57 52 154 148 169 189 16 42 13 81-7 109-17 24-44 37-75 37-4 0-9 0-13 0-29-4-51-17-65-38l-9-14-9 14c-9 15-28 33-65 38-4 0-9 0-13 0z"/>
<glyph glyph-name="backend-feedback-negative" unicode="&#57436;" d="M256 7c138 0 249 112 249 249 0 138-111 249-249 249-138 0-249-111-249-249 0-137 111-249 249-249z m0 483c129 0 234-105 234-234 0-129-105-234-234-234-129 0-233 105-233 234 0 129 104 234 233 234z m103-136c1 0 1 0 2 0 10-2 16-11 17-20l7-95 0-1c1-13-10-20-17-21-1 0-1 0-1 0-4 0-9 0-14 0-20 0-45 2-59 3-9-10-19-28-26-42l0-29c0-3-1-6-3-9-8-11-22-13-30-13-2 0-4 0-5 0 0 0 0 0 0 0-4 1-7 3-9 5-13 14-20 46-21 50 0 1-1 3 0 4l1 20-43 0c-17 0-31 14-31 31 0 8 3 15 8 21-1 3-2 6-2 9 0 8 3 16 8 21 0 2 0 5 0 7 0 8 3 16 9 22 0 2 0 3 0 4 0 18 14 32 31 32l82 0c3 0 7-1 10-2 1 0 2 0 2-1 2 0 4-2 6-3 4 5 9 6 10 7 0 0 1 0 2 0l66 0z m-90-18c-2 0-4 1-6 1l-82 0c-9 0-15-7-15-16 0-2 0-4 1-6l2-4-4-2c-5-3-8-8-8-14 0-3 0-6 2-8l2-4-4-2c-5-3-8-8-8-14 0-4 2-7 4-10l3-4-5-2c-5-3-8-8-8-14 0-9 7-16 15-16l60 0-3-36c2-9 9-33 17-42 1 0 2 0 3 0 5 0 13 1 17 6l0 33 1 1c3 5 16 32 30 48l-3 91 0 7c-2 0-3 1-4 2l-1 0-1 1c-1 2-3 3-5 4l0 0c0 0 0 0 0 0z m91-3c0 1-1 3-2 3l-64 0c0 0-2-2-2-7l0-6 3-85c13-1 38-4 58-4 5 0 9 0 13 1 1 0 2 1 2 2z"/>
<glyph glyph-name="backend-feedback-positive" unicode="&#57372;" d="M256 505c-138 0-249-111-249-249 0-137 111-249 249-249 138 0 249 112 249 249 0 138-111 249-249 249z m0-483c-129 0-234 105-234 234 0 129 105 234 234 234 128 0 233-105 233-234 0-129-105-234-233-234z m-103 136c-1 0-1 0-2 0-10 2-16 11-17 20l-7 96 0 0c-1 13 10 20 17 21 1 0 1 0 1 0 4 0 9 0 14 0 20 0 45-2 59-3 9 10 19 28 26 42l0 29c0 3 1 6 3 9 8 11 22 13 30 13 2 0 4 0 5 0 0 0 0 0 0 0 4-1 7-3 9-5 13-14 20-46 21-50 0-1 1-3 0-4l-1-20 43 0c17 0 31-14 31-31 0-8-3-15-8-21 1-3 2-6 2-9 0-8-3-16-8-21 0-2 0-5 0-7 0-8-3-16-9-22 0-2 0-3 0-4 0-18-14-32-31-32l-82 0c-3 0-7 1-10 2-1 0-2 0-2 1-2 0-4 1-6 3-4-5-9-6-10-7 0 0-1 0-2 0l-66 0z m90 18c2 0 4-1 6-1l82 0c9 0 15 7 15 16 0 2 0 4-1 6l-2 4 4 2c5 3 8 8 8 14 0 3 0 6-2 8l-2 4 4 2c5 3 8 8 8 14 0 4-2 7-4 10l-3 4 5 2c5 3 8 8 8 14 0 9-7 16-15 16l-60 0 3 36c-2 9-9 33-17 42-1 0-2 0-3 0-5 0-13-1-17-6l0-33-1-1c-3-5-16-32-30-48l3-91 0-7c2 0 3-1 4-2l1 0 1-1c1-2 3-3 5-4l0 0c0 0 0 0 0 0z m-91 4c0-2 1-4 2-4l64 0c0 0 2 2 2 7l0 6-3 85c-13 2-38 4-58 4-5 0-9 0-13-1-1 0-2-1-2-2z"/>
<glyph glyph-name="backend-filter" unicode="&#57356;" d="M256 156l67 57c5 5 12 5 17 0 5-4 5-11 0-16l-76-65c-2-2-5-4-8-4-4 0-7 2-9 4l-76 65c-4 5-4 12 0 17 5 4 13 4 17 0z m-68 143c-4-5-12-5-17 0-4 4-4 11 0 16l76 65c2 2 5 4 9 4 3 0 6-2 8-4l76-65c5-5 5-12 0-16-5-5-12-5-17 0l-67 57z"/>
<glyph glyph-name="backend-filter-down" unicode="&#57388;" d="M256 156l67 57c5 5 12 5 17 0 5-4 5-11 0-16l-76-65c-2-2-5-4-8-4-4 0-7 2-9 4l-76 65c-4 5-4 12 0 17 5 4 13 4 17 0z"/>
<glyph glyph-name="backend-filter-up" unicode="&#57387;" d="M188 299c-4-5-12-5-17 0-4 4-4 11 0 16l76 65c2 2 5 4 9 4 3 0 6-2 8-4l76-65c5-5 5-12 0-16-5-5-12-5-17 0l-67 57z"/>
<glyph glyph-name="backend-go2profile" unicode="&#57382;" d="M399 113c0-12-10-22-22-22l-264 0c-12 0-22 10-22 22l0 264c0 12 10 22 22 22l132 0 0 22-132 0c-25 0-44-20-44-44l0-264c0-25 19-44 44-44l264 0c24 0 44 19 44 44l0 132-22 0z m44 315l0 15-110 0 0-22 73 0-183-182 15-16 183 182 0-72 22 0 0 94 0 0z"/>
<glyph glyph-name="backend-image" unicode="&#57418;" d="M377 282c-33 0-60 27-60 60 0 34 27 61 60 61 33 0 61-27 61-61 0-33-28-60-61-60z m0 104c-24 0-43-20-43-44 0-23 19-43 43-43 24 0 43 20 43 43 0 24-19 44-43 44z m91-346l-424 0c-21 0-39 17-39 39l0 354c0 22 18 39 39 39l424 0c21 0 39-17 39-39l0-354c0-22-18-39-39-39z m-424 415c-12 0-22-10-22-22l0-354c0-12 10-22 22-22l424 0c12 0 22 10 22 22l0 354c0 12-10 22-22 22l-424 0z m-4-344l0 306 0 1c2 11 11 20 23 20l386 0c12 0 22-10 23-22l0 0 0-303-122 131c-2 3-5 4-7 4-3 0-5-1-9-4l-20-18c-5-3-10-6-18-6-6 0-13 2-18 6-1 1-3 3-4 5l-1 0-58 63c-3 4-7 5-12 5-4 0-8-2-11-5z m323 145l92-100 0 260c-1 2-3 4-6 4l-386 0c-3 0-5-2-6-5l0-256 122 146c6 7 15 12 24 12 10 0 19-4 25-11l58-63c1-1 3-3 4-4 1-1 4-2 6-2 2 0 4 0 7 3l20 17c5 4 11 8 20 8 7 0 15-3 20-9z"/>
<glyph glyph-name="backend-info" unicode="&#57419;" d="M256 92c-90 0-164 73-164 164 0 90 74 163 164 163 90 0 164-73 164-164 0-90-74-163-164-163z m0 304c-77 0-140-63-140-140 0-78 63-141 140-141 77 0 140 63 140 141 0 77-63 140-140 140z m-28-119l0 9c2 1 6 2 10 3 4 1 9 2 14 3 4 1 9 2 14 2 4 1 9 1 12 1l5-3-23-110 18 0 0-9c-3-1-5-3-8-4-3-2-6-3-10-4-3-1-6-2-10-2-3-1-6-1-9-1-7 0-11 1-14 3-2 3-4 6-4 8 0 4 1 7 1 10 1 4 1 7 2 11l18 80z m21 58c0 6 2 10 6 14 4 3 9 5 15 5 7 0 12-2 16-5 3-4 5-8 5-14 0-5-2-10-5-13-4-3-9-5-16-5-6 0-11 2-15 5-4 3-6 8-6 13z"/>
<glyph glyph-name="backend-menu" unicode="&#57381;" d="M256 355c18 0 33 15 33 33 0 18-15 33-33 33-18 0-33-15-33-33 0-18 15-33 33-33z m0-66c-18 0-33-15-33-33 0-18 15-33 33-33 18 0 33 15 33 33 0 18-15 33-33 33z m0-132c-18 0-33-15-33-33 0-18 15-33 33-33 18 0 33 15 33 33 0 18-15 33-33 33z"/>
<glyph glyph-name="backend-mobile" unicode="&#57420;" d="M179 125l154 0c12 0 21 9 21 21l0 241c0 12-9 22-21 22l-154 0c-12 0-21-10-21-22l0-241c0-12 9-21 21-21z m0 262l154 0 0-241-154 0z m212 88l-270 0c-4 0-7-4-7-8l0-422c0-4 3-8 7-8l270 0c4 0 7 4 7 8l0 422c0 4-3 8-7 8z m-15-416l-240 0 0 394 240 0z m-98 22l-45 0c-5 0-10 5-10 10l0 1c0 6 5 11 10 11l45 0c6 0 11-5 11-11l0-1c0-5-5-10-11-10z"/>
<glyph glyph-name="backend-nav-appointments" unicode="&#57376;" d="M388 410l-44 0 0 11c0 6-5 11-11 11-6 0-11-5-11-11l0-11-132 0 0 11c0 6-5 11-11 11-6 0-11-5-11-11l0-11-44 0c-24 0-44-20-44-44l0-242c0-24 20-44 44-44l264 0c24 0 44 20 44 44l0 242c0 24-20 44-44 44z m22-286c0-12-10-22-22-22l-264 0c-12 0-22 10-22 22l0 154 308 0z m0 176l-308 0 0 66c0 12 10 22 22 22l44 0 0-11c0-6 5-11 11-11 6 0 11 5 11 11l0 11 132 0 0-11c0-6 5-11 11-11 6 0 11 5 11 11l0 11 44 0c12 0 22-10 22-22z"/>
<glyph glyph-name="backend-nav-branch" unicode="&#57375;" d="M256 363c-30 0-55-25-55-55 0-30 25-55 55-55 30 0 55 25 55 55 0 30-25 55-55 55z m0-88c-18 0-33 15-33 33 0 18 15 33 33 33 18 0 33-15 33-33 0-18-15-33-33-33z m0 177c-87 0-143-68-143-133 0-108 138-257 139-258 1-2 2-2 4-2 2 0 3 1 4 2 1 1 139 150 139 258 0 65-57 133-143 133z m0-367c-18 28-121 140-121 234 0 59 56 111 121 111 67 0 121-52 121-111 0-93-103-206-121-234z"/>
<glyph glyph-name="backend-nav-close" unicode="&#57369;" d="M151 256l102 112c5 4 5 12 0 17-4 4-12 4-16 0l-110-120c-2-3-3-6-3-9 0-3 1-6 3-8l110-121c2-2 5-3 8-3 3 0 6 1 8 3 5 5 5 13 0 17z m132 0l102 112c4 4 4 12 0 17-4 4-12 4-16 0l-110-120c-2-3-3-6-3-9 0-3 1-6 3-8l110-121c2-2 5-3 8-3 3 0 6 1 8 3 4 5 4 13 0 17z"/>
<glyph glyph-name="backend-nav-customers" unicode="&#57407;" d="M355 267c37 0 66 30 66 66 0 36-29 66-66 66-36 0-66-30-66-66 0-36 30-66 66-66z m0 110c25 0 44-20 44-44 0-24-19-44-44-44-24 0-43 20-43 44 0 24 19 44 43 44z m0-132c-31 0-61-5-86-12-24 7-51 11-80 11-101 0-186-55-186-89l0-59c0-3 2-5 5-5l362 0c3 0 6 2 6 5l0 39 129 0c2 0 4 2 4 4l0 51c0 27-69 55-154 55z m0-132l-330 0 0 44c0 23 89 66 154 66l22 0c67 0 154-43 154-66l0-44z m132 44l-111 0 0 3c0 19-27 43-70 61 9 1 18 2 27 2l44 0c55 0 110-26 110-44l0-22z m-297 110c42 0 77 35 77 77 0 43-35 77-77 77-42 0-77-34-77-77 0-42 35-77 77-77z m0 132c31 0 55-25 55-55 0-31-24-55-55-55-30 0-55 24-55 55 0 30 25 55 55 55z"/>
<glyph glyph-name="backend-nav-dropdown" unicode="&#57365;" d="M256 239l67 58c5 4 13 4 17 0 5-4 5-12 0-16l-76-66c-2-2-5-3-8-3-3 0-6 1-8 3l-76 66c-5 4-5 11 0 16 4 4 12 4 17 0z"/>
<glyph glyph-name="backend-nav-employees-1" unicode="&#58004;" d="M127 265c29 0 52 23 52 52 0 29-23 53-52 53-29 0-53-24-53-53 0-29 24-52 53-52z m0 87c19 0 34-16 34-35 0-19-15-35-34-35-20 0-35 16-35 35 0 19 15 35 35 35z m0-105c-68 0-122-22-122-43l0-41c0-1 1-3 3-3l103 0 0 17-89 0 0 18c0 14 44 35 87 35l35 0c7 0 15-1 22-2 9 4 18 7 29 10-20 6-43 9-68 9z m129 18c34 0 61 27 61 61 0 34-27 61-61 61-34 0-61-27-61-61 0-34 27-61 61-61z m0 104c24 0 44-19 44-43 0-24-20-44-44-44-24 0-43 20-43 44 0 24 19 43 43 43z m131-104c29 0 52 23 52 52 0 29-23 53-52 53-29 0-53-24-53-53 0-29 24-52 53-52z m0 87c19 0 35-16 35-35 0-19-16-35-35-35-19 0-35 16-35 35 0 19 16 35 35 35z m0-105c-25 0-49-3-68-9-19 5-41 8-64 8-80 0-147-43-147-70l0-47c0-2 1-4 4-4l287 0c2 0 4 2 4 4l0 31 103 0c2 0 3 1 3 3l0 41c0 21-55 43-122 43z m0-104l-262 0 0 34c0 19 71 53 122 53l18 0c53 0 122-34 122-53z m105 34l-89 0 0 3c0 15-21 34-55 48 7 1 14 2 21 2l35 0c44 0 88-21 88-35z"/>
<glyph glyph-name="backend-nav-feedback" unicode="&#57364;" d="M113 256l176 0c6 0 11 5 11 11 0 7-5 11-11 11l-176 0c-6 0-11-4-11-11 0-6 5-11 11-11z m0 44l286 0c6 0 11 5 11 11 0 6-5 11-11 11l-286 0c-6 0-11-5-11-11 0-6 5-11 11-11z m341 154l-396 0c-12 0-22-10-22-22l0-264c0-12 10-22 22-22l44 0 0-87 132 87 220 0c12 0 22 10 22 22l0 264c0 12-10 22-22 22z m0-286l-242 0-88-66 0 66-66 0 0 264 396 0z m-341 176l110 0c6 0 11 5 11 11 0 6-5 11-11 11l-110 0c-6 0-11-5-11-11 0-6 5-11 11-11z"/>
<glyph glyph-name="backend-nav-insights" unicode="&#57361;" d="M355 113l66 0c12 0 22 10 22 22l0 220c0 12-10 22-22 22l-66 0c-12 0-22-10-22-22l0-220c0-12 10-22 22-22z m0 242l66 0 0-220-66 0z m-264-242l66 0c12 0 22 10 22 22l0 154c0 12-10 22-22 22l-66 0c-12 0-22-10-22-22l0-154c0-12 10-22 22-22z m0 176l66 0 0-154-66 0z m132-176l66 0c12 0 22 10 22 22l0 286c0 12-10 22-22 22l-66 0c-12 0-22-10-22-22l0-286c0-12 10-22 22-22z m0 308l66 0 0-286-66 0z m231-330l-396 0c-6 0-11-5-11-11 0-6 5-11 11-11l396 0c6 0 11 5 11 11 0 6-5 11-11 11z"/>
<glyph glyph-name="backend-nav-messages" unicode="&#57360;" d="M400 390l-289 0c-23 0-42-18-42-41l0-186c0-23 19-41 42-41l289 0c23 0 42 18 42 41l0 186c0 23-19 41-42 41z m-289-20l289 0c6 0 12-3 16-7l-160-118-160 118c4 4 9 7 15 7z m-21-28l108-80-107-106c0 2-1 4-1 7z m310-200l-289 0c-2 0-3 0-4 1l108 107 34-26c2-1 4-2 7-2 2 0 4 1 6 2l34 26 108-107c-1-1-2-1-4-1z m21 21c0-3 0-5-1-7l-107 106 108 80z"/>
<glyph glyph-name="backend-nav-newsletter" unicode="&#57357;" d="M179 267l154 0c6 0 11 5 11 11 0 6-5 11-11 11l-154 0c-6 0-11-5-11-11 0-6 5-11 11-11z m0-66l154 0c6 0 11 5 11 11 0 6-5 11-11 11l-154 0c-6 0-11-5-11-11 0-6 5-11 11-11z m0 132l154 0c6 0 11 5 11 11 0 6-5 11-11 11l-154 0c-6 0-11-5-11-11 0-6 5-11 11-11z m209 110l-264 0c-12 0-22-10-22-22l0-330c0-12 10-22 22-22l264 0c12 0 22 10 22 22l0 330c0 12-10 22-22 22z m0-352l-264 0 0 330 264 0z m-209 44l44 0c6 0 11 5 11 11 0 6-5 11-11 11l-44 0c-6 0-11-5-11-11 0-6 5-11 11-11z"/>
<glyph glyph-name="backend-nav-open" unicode="&#57389;" d="M385 265l-110 120c-4 4-12 4-16 0-4-5-4-13 0-17l102-112-102-112c-5-4-5-12 0-17 2-2 5-3 8-3 3 0 6 1 8 3l110 121c2 2 3 5 3 8 0 3-1 6-3 9z m-132 0l-110 120c-4 4-12 4-16 0-4-5-4-13 0-17l102-112-102-112c-4-4-4-12 0-17 2-2 5-3 8-3 3 0 6 1 8 3l110 121c2 2 3 5 3 8 0 3-1 6-3 9z"/>
<glyph glyph-name="backend-nav-partner-network-01" unicode="&#57386;" d="M424 355c18 11 30 32 30 55 0 36-30 66-66 66-31 0-57-21-64-50-15 4-30 6-46 6-65 0-122-35-152-88-1 0-1 0-2 0-36 0-66-30-66-66 0-31 21-56 49-64 19-77 88-134 171-134 1 0 2 0 4 0 9-25 33-44 62-44 36 0 66 30 66 66 0 11-3 21-7 30 31 32 51 76 51 124 0 37-11 70-30 99z m-36 99c24 0 44-20 44-44 0-24-20-44-44-44-24 0-44 20-44 44 0 24 20 44 44 44z m-308-176c0 24 20 44 44 44 24 0 44-20 44-44 0-24-20-44-44-44-24 0-44 20-44 44z m264-220c-24 0-44 20-44 44 0 24 20 44 44 44 24 0 44-20 44-44 0-24-20-44-44-44z m45 92c-12 11-28 18-45 18-37 0-66-29-66-66-70 0-129 47-148 110 34 4 60 32 60 66 0 28-17 51-42 61 28 43 76 71 130 71 15 0 30-2 44-7 3-33 32-59 66-59 5 0 10 1 15 2 18-26 29-57 29-90 0-41-16-78-43-106z"/>
<glyph glyph-name="backend-nav-partner-network-02" unicode="&#57383;" d="M454 201c-18 0-33-15-33-33 0-18 15-33 33-33 18 0 33 15 33 33 0 18-15 33-33 33z m-198 242c18 0 33 15 33 33 0 18-15 33-33 33-18 0-33-15-33-33 0-18 15-33 33-33z m-198-242c-18 0-33-15-33-33 0-18 15-33 33-33 18 0 33 15 33 33 0 18-15 33-33 33z m371 121c6-7 15-11 25-11 18 0 33 15 33 33 0 18-15 33-33 33-18 0-33-15-33-33 0 0 0-1 0-1l-54-38c-19 42-62 72-111 72-49 0-92-30-111-72l-54 38c0 0 0 1 0 1 0 18-15 33-33 33-18 0-33-15-33-33 0-18 15-33 33-33 10 0 19 4 25 11l55-39c-2-8-3-18-3-27 0-63 48-115 110-120l0-69c-13-4-22-17-22-31 0-18 15-33 33-33 18 0 33 15 33 33 0 14-9 27-22 31l0 69c62 5 110 57 110 120 0 9-1 19-3 27z m-173-165c-55 0-99 44-99 99 0 55 44 99 99 99 55 0 99-44 99-99 0-55-44-99-99-99z"/>
<glyph glyph-name="backend-nav-resources" unicode="&#57380;" d="M256 267c43 0 77 35 77 77 0 43-34 77-77 77-42 0-77-34-77-77 0-42 35-77 77-77z m0 132c31 0 55-25 55-55 0-31-24-55-55-55-30 0-54 24-54 55 0 30 24 55 54 55z m-1-155c-101 0-186-55-186-89l0-59c0-3 2-5 5-5l362 0c3 0 6 2 6 5l0 64c0 33-84 84-187 84z m166-131l-329 0 0 44c0 23 88 66 153 66l22 0c67 0 154-43 154-66l0-44z"/>
<glyph glyph-name="backend-nav-services" unicode="&#57377;" d="M209 356l211 0c6 0 11 5 11 11 0 6-5 11-11 11l-211 0c-6 0-11-5-11-11 0-6 5-11 11-11z m213-198l-213 0c-6 0-11-5-11-11 0-6 5-11 11-11l213 0c6 0 11 5 11 11 0 6-5 11-11 11z m-308 173c21 0 38 16 38 36 0 20-17 36-38 36-20 0-37-16-37-36 0-20 17-36 37-36z m0 53c10 0 18-8 18-17 0-9-8-17-18-17-9 0-17 8-17 17 0 9 8 17 17 17z m0-201c-20 0-37-16-37-36 0-20 17-36 37-36 21 0 38 16 38 36 0 20-17 36-38 36z m0-53c-9 0-17 8-17 17 0 9 8 16 17 16 10 0 18-7 18-16 0-9-8-17-18-17z m95 117l211 0c6 0 11 4 11 10 0 6-5 11-11 11l-211 0c-6 0-11-5-11-11 0-6 5-10 11-10z m-95-26c21 0 38 16 38 36 0 20-17 36-38 36-20 0-37-16-37-36 0-20 17-36 37-36z m0 53c10 0 18-7 18-17 0-9-8-16-18-16-9 0-17 7-17 16 0 10 8 17 17 17z"/>
<glyph glyph-name="backend-nav-settings" unicode="&#57374;" d="M446 232l0 48-50 0c-3 21-11 40-23 57l50 43-35 43-54-48c-16 11-35 18-54 21l0 50-48 0 0-50c-19-3-38-10-54-21l-54 48-34-43 49-43c-12-17-20-36-23-57l-50 0 0-48 50 0c3-21 11-40 23-57l-50-43 35-42 54 47c16-11 34-18 54-21l0-50 48 0 0 50c19 3 38 10 54 21l54-48 35 43-50 43c12 17 20 36 23 57l50 0z m-190-71c-53 0-95 42-95 95 0 52 42 95 95 95 52 0 95-43 95-95 0-52-43-95-95-95z"/>
<glyph glyph-name="backend-nav-shiftplan" unicode="&#57370;" d="M431 201l-219 0c-12 0-22 10-22 22l0 66c0 12 10 22 22 22l219 0c13 0 22-10 22-22l0-66c0-12-9-22-22-22z m0 88l-219 0 0-66 219 0z m-109 44l-198 0c-12 0-22 10-22 22l0 65c0 13 10 22 22 22l198 0c12 0 22-9 22-22l0-65c0-12-10-22-22-22z m0 88l-198 0 0-66 198 0z m-253-352c-6 0-11 5-11 12l0 87c0 6 5 11 11 11 7 0 12-5 12-11l0-87c0-7-5-12-12-12z m0 132c-6 0-11 5-11 11l0 88c0 6 5 11 11 11 7 0 12-5 12-11l0-88c0-6-5-11-12-11z m0 132c-6 0-11 5-11 11l0 87c0 7 5 12 11 12 7 0 12-5 12-12l0-87c0-6-5-11-12-11z m99-154l176 0c12 0 22-10 22-22l0-66c0-12-10-22-22-22l-176 0c-12 0-22 10-22 22l0 66c0 12 10 22 22 22z m0-88l176 0 0 66-176 0z"/>
<glyph glyph-name="backend-nav-subnavi" unicode="&#57367;" d="M217 256l102 112c4 4 4 12 0 17-4 4-12 4-16 0l-110-120c-2-3-3-6-3-9 0-3 1-6 3-8l110-121c2-2 5-3 8-3 3 0 6 1 8 3 4 5 4 13 0 17z"/>
<glyph glyph-name="backend-new-appointment" unicode="&#57413;" d="M57 168l0 154 310 0 0-44 22 0 0 133c0 24-20 44-44 44l-45 0 0 11c0 6-5 11-11 11-6 0-11-5-11-11l0-11-132 0 0 11c0 6-5 11-11 11-7 0-11-5-11-11l0-11-45 0c-24 0-44-20-44-44l0-243c0-25 20-45 44-45l155 0 0 22-155 0c-12 0-22 10-22 23z m0 243c0 12 10 22 22 22l45 0 0-11c0-6 4-11 11-11 6 0 11 5 11 11l0 11 132 0 0-11c0-6 5-11 11-11 7 0 12 5 12 11l0 11 44 0c12 0 22-10 22-22l0-67-310 0z m332-266l0 89-22 0 0-88-89 0 0-23 89 0 0-88 22 0 0 88 88 0 0 22z"/>
<glyph glyph-name="backend-new-customer" unicode="&#57414;" d="M212 312c42 0 77 34 77 77 0 42-35 77-77 77-43 0-78-35-78-77 0-43 35-77 78-77z m0 132c30 0 55-25 55-56 0-30-25-55-55-55-30 0-55 25-55 55 0 31 25 56 55 56z m-166-243c0 23 89 66 155 66l22 0c37 0 79-13 111-28l0 24c-33 14-76 25-123 25-102 0-187-55-187-89l0-59c0-3 2-6 5-6l216 0 0 23-199 0z m354-45l0 89-22 0 0-88-89 0 0-23 89 0 0-88 22 0 0 88 88 0 0 22z"/>
<glyph glyph-name="backend-new-message" unicode="&#57415;" d="M42 187c4-4 11-5 16-2l108 106 34-25c4-2 8-3 12-1 3-2 8-1 11 1l34 25 56-55 16 16-54 53 113 83 0-77 23 0 0 89c0 24-20 44-45 44l-309 0c-24 0-44-20-44-44l0-199c0-25 20-44 44-44l199 0 0 22-199 0c-12 0-22 10-22 22l0 187 113-83-103-102c-5-4-6-11-3-16z m-3 226c4 5 11 9 18 9l309 0c8 0 14-4 18-9l-172-128z m372-234l0 88-22 0 0-88-89 0 0-22 89 0 0-89 22 0 0 89 88 0 0 22z"/>
<glyph glyph-name="backend-new-newsletter" unicode="&#57412;" d="M79 466l265 0 0-199 23 0 0 199c0 12-10 22-23 22l-265 0c-12 0-22-10-22-22l0-332c0-12 10-22 22-22l133 0 0 22-133 0z m221-210c0 6-5 11-11 11l-155 0c-6 0-11-5-11-11 0-6 5-11 11-11l155 0c6 0 11 5 11 11z m-166-55c-6 0-11-5-11-11 0-6 5-11 11-11l45 0c6 0 11 5 11 11 0 6-5 11-11 11z m155 199l-155 0c-6 0-11-5-11-11 0-7 5-12 11-12l155 0c6 0 11 5 11 12 0 6-5 11-11 11z m0-67l-155 0c-6 0-11-5-11-11 0-6 5-11 11-11l155 0c6 0 11 5 11 11 0 6-5 11-11 11z m78-199l0 89-23 0 0-89-88 0 0-22 88 0 0-88 22 0 0 88 89 0 0 22z"/>
<glyph glyph-name="backend-new-shift" unicode="&#57411;" d="M24 344c-6 0-11-5-11-11l0-88c0-6 5-11 11-11 6 0 11 5 11 11l0 88c0 6-5 11-11 11z m121-22l0-66c0-12 10-22 23-22l176 0 0 22-176 0 0 66 221 0 0-44 22 0 0 44c0 13-10 22-22 22l-221 0c-13 0-23-9-23-22z m-121 155c-6 0-11-5-11-11l0-88c0-7 5-12 11-12 6 0 11 5 11 12l0 88c0 6-5 11-11 11z m0-265c-6 0-11-5-11-11l0-89c0-6 5-11 11-11 6 0 11 5 11 11l0 89c0 6-5 11-11 11z m276 177l0 66c0 12-10 22-22 22l-199 0c-12 0-22-10-22-22l0-66c0-13 10-22 22-22l199 0c12 0 22 9 22 22z m-221 66l199 0 0-66-199 0z m44-265l199 0c0 12-10 22-22 22l-177 0c-12 0-22-10-22-22l0-67c0-12 10-22 22-22l133 0 0 22-133 0z m288-45l0 89-22 0 0-88-89 0 0-23 89 0 0-88 22 0 0 88 88 0 0 22z"/>
<glyph glyph-name="backend-next" unicode="&#57424;" d="M307 85c7 0 13 3 18 8 0 0 161 142 164 145 3 2 8 9 8 18 0 9-5 15-8 18-2 3-164 145-164 145-9 10-26 10-36 0-10-10-9-25 0-35l121-103-369 0c-14 0-26-11-26-25 0-14 12-25 26-25l369 0-121-103c-9-10-10-26 0-35 5-5 12-8 18-8z"/>
<glyph glyph-name="backend-notes" unicode="&#57431;" d="M300 422l-154 0c-13 0-23-10-23-23l0-309c0-12 10-22 23-22l242 0c13 0 23 10 23 22l0 221z m88-118l-95 0 0 95z m-242-214l0 309 125 0 0-106c0-6 5-11 11-11l106 0 0-192z"/>
<glyph glyph-name="backend-payment-amount" unicode="&#57432;" d="M443 355c-4 58-96 88-187 88-91 0-183-30-187-88 0 0 0-1 0-2l0-192c0-60 94-92 187-92 93 0 187 32 187 92l0 193c0 0 0 1 0 1z m-328-228c-13 10-21 21-21 34l0 11c6-5 13-10 21-14z m0 59c-13 10-21 22-21 34l0 19c4-4 10-8 15-11 2-1 4-2 6-4z m0 67c-13 10-21 21-21 33l0 18c2-2 4-3 6-5 5-3 10-6 15-9l0-37z m39-145c-9 3-18 7-25 11l0 32c8-3 16-6 25-8z m0 60c-9 3-18 6-25 10l0 40c8-4 16-6 25-9z m0 66c-9 3-18 7-25 10l0 39c8-3 16-6 25-9z m38-135c-9 1-17 3-25 5l0 35c8-2 16-4 25-5z m0 59c-9 2-17 4-25 6l0 41c8-2 16-3 25-5z m0 67c-6 1-11 2-16 3-3 1-6 1-9 2l0 41c8-2 16-4 25-5z m38-131c-8 1-17 2-24 3l0 35c8-1 16-2 24-2z m0 60c-8 0-17 1-24 2l0 42c8-1 16-1 24-2z m0 66c-8 1-17 1-24 2l0 42c8-1 16-2 24-3z m38-126c-4-1-8-1-12-1-4 0-8 0-12 1l0 35c4 0 8 0 12 0 4 0 8 0 12 0z m0 59c-4 0-8 0-12 0-4 0-8 0-12 0l0 42c4 0 8 0 12 0 4 0 8 0 12 0z m0 66c-4 0-8 0-12 0-4 0-8 0-12 0l0 42c4 0 8 0 12 0 4 0 8 0 12 0z m38-122c-8-1-16-2-24-3l0 36c8 0 16 1 24 2z m0 59c-8-1-16-2-24-2l0 42c8 1 16 1 24 2z m0 66c-8-1-16-1-24-2l0 41c8 1 16 2 24 3z m39-118c-8-2-16-4-25-5l0 35c8 1 17 3 25 5z m0 60c-8-2-16-4-25-6l0 42c8 2 17 3 25 5z m0 66c-3-1-6-2-9-2-5-1-11-3-16-4l0 42c8 1 17 3 25 5z m38-111c-7-4-16-8-25-11l0 35c9 2 17 5 25 8z m0 59c-7-4-16-7-25-10l0 41c9 3 17 5 25 9z m0 66c-7-3-16-7-25-10l0 40c9 3 17 6 25 9z m35-83c0-13-8-24-22-34l0 31c9 4 16 9 22 14z m0 59c0-12-8-24-22-34l0 38c3 1 5 3 7 4 5 3 10 7 15 11z m0 66c0-12-8-23-22-33l0 37c6 3 11 6 16 9 2 2 4 3 6 5z m-33 25c-8-4-17-8-28-12-16-5-35-9-55-12-15-2-30-3-46-3-16 0-31 1-46 3-20 3-39 7-55 12-11 4-20 8-28 12-21 11-33 25-33 41 0 0 0 1 0 1 0 5 1 9 3 12 2 5 5 9 9 12 25 25 83 42 150 42 68 0 125-17 150-42 4-3 7-7 9-12 2-3 3-7 3-12 0 0 0-1 0-1 0-16-12-30-33-41z m-21 47l-24 0c-1 3-3 5-5 8-3 2-6 5-10 7-5 2-10 3-16 4-5 2-11 2-18 2-7 0-14 0-19-2-1 0-3 0-4 0-6-2-12-4-16-7-2-1-4-3-5-4-3-2-5-5-7-8l-4-4-7-8 0 0c0 0 0 0-1 0l0-1c-2-1-3-2-5-2-2-1-6-2-11-2-4 0-7 1-10 2-1 0-1 0-2 1l0 0c0 0-6 2-5 10 0 1 0 3 0 5 0 0 1 0 1 0 0 1 0 2 1 3 0 1 1 1 1 2 0 0 1 1 1 2 1 1 3 3 4 5 2 1 0 3-3 3l-17 3c-3 1-7 0-8-1-4-4-6-7-8-10-1-3-2-5-2-7l-17 0c-4 0-7-2-7-3l0-7c0-1 3-2 7-2l18 0c2-6 7-10 14-14 8-4 19-6 32-6 14 0 25 2 34 5 7 3 13 7 18 13l7 9 4 5c3 2 5 4 7 4 3 1 6 2 11 2 3 0 12 0 16-6 0 0 1-2 2-5 0-2 1-5 0-7l0 0c0-1 0-1 0-1 0 0 0 0 0 0 0-1 0-1 0-1-1-2-1-4-2-6-2-3-5-7-8-9-1-1 0-2 1-3 1-1 3-1 5-1l20 0c3 0 5 1 6 2 3 2 5 5 7 9 1 3 2 7 2 10l23 0c3 0 6 1 6 2l0 7c0 1-3 2-7 2z"/>
<glyph glyph-name="backend-payment-card" unicode="&#57433;" d="M344 157l66 0c12 0 22 10 22 22l0 44c0 12-10 22-22 22l-66 0c-12 0-22-10-22-22l0-44c0-12 10-22 22-22z m0 66l66 0 0-44-66 0z m88 198l-352 0c-24 0-44-20-44-44l0-242c0-24 20-44 44-44l352 0c24 0 44 20 44 44l0 242c0 24-20 44-44 44z m22-286c0-12-10-22-22-22l-352 0c-12 0-22 10-22 22l0 132 396 0 0-132z m0 154l-396 0 0 44 396 0 0-44z m0 66l-396 0 0 22c0 12 10 22 22 22l352 0c12 0 22-10 22-22z"/>
<glyph glyph-name="backend-payment-online" unicode="&#58134;" d="M88 149l336 0c7 0 12 5 12 11l0 222c0 6-5 12-12 12l-336 0c-7 0-12-6-12-12l0-222c0-6 5-11 12-11z m325 222l0-199-314 0 0 199z m85-235l-28 0 0 281c0 7-5 12-11 12l-406 0c-6 0-11-5-11-12l0-281-28 0c-6 0-11-5-11-11l0-30c0-7 5-12 11-12l484 0c6 0 11 5 11 12l0 30c0 6-5 11-11 11z m-51 270l0-269-382 0 0 269z m-422-300l0 7 462 0 0-7z"/>
<glyph glyph-name="backend-phone" unicode="&#57410;" d="M358 55c-74 0-151 56-202 104-40 38-70 74-89 109-15 28-23 55-23 80 0 41 21 64 25 68l33 36 0 1c7 6 18 6 25-1l88-82c3-3 5-7 5-12 0-5-2-9-5-12l-33-37c0 0-5-6-5-18 1-13 9-36 44-70 17-15 49-41 77-41 11 0 17 4 19 5l32 36 1 0c6 6 18 6 24 0l88-82c3-3 5-8 5-12 0-5-1-9-5-13l-32-36-1 0c-2-3-25-23-71-23z m-243 378l-30-33 0 0c-1-1-18-18-18-52 0-34 18-92 105-173 87-81 149-98 186-98 35 0 53 15 56 17l29 32-81 76-30-34-1 0c-4-3-15-10-32-10-19 0-51 8-93 47-33 31-50 60-51 87 0 19 9 30 11 33l30 33z"/>
<glyph glyph-name="backend-planned" unicode="&#57423;" d="M431 333l-22 16 0 49c0 12-10 22-22 22l-73 0-58 44-58-44-73 0c-12 0-22-10-22-22l0-49-22-16c-22-14-22-20-22-44l0-197c0-24 20-44 44-44l306 0c24 0 44 20 44 44l0 197c0 24-2 30-22 44z m-175 109l29-22-58 0z m-131-44l262 0 0-131-131-88-131 88z m-44-87l22 16 0-38-21 15c-2 1-5 4-1 7z m350-219c0-12-10-22-22-22l-306 0c-12 0-22 10-22 22l0 186 112-83-102-101c-5-3-6-10-3-15 4-5 11-6 16-2l107 106 34-22c6-5 16-5 22 0l34 22 107-106c5-4 12-3 16 2 3 5 2 12-3 15l-102 101 112 83z m-1 212l-21-15 0 38 22-16c4-3 1-6-1-7z"/>
<glyph glyph-name="backend-previous" unicode="&#57422;" d="M223 93c10 9 9 25 0 35l-122 103 370 0c14 0 26 11 26 25 0 14-12 25-26 25l-370 0 122 103c9 10 10 25 0 35-10 10-27 10-36 0 0 0-162-142-164-145-3-3-8-9-8-18 0-9 5-16 8-18 2-3 164-145 164-145 5-5 11-8 18-8 6 0 13 3 18 8z"/>
<glyph glyph-name="backend-print" unicode="&#57366;" d="M454 157c3 0 0-3 0 0z m-66 0l0-88-264 0 0 88-66 0 0 198 66 0 0 88 264 0 0-88 66 0 0-198z m-242-66l220 0 0 132-220 0z m220 330l-220 0 0-66 220 0z m66-88l-352 0 0-154 44 0 0 66 264 0 0-66 44 0z m-89-65c-3 0-5 2-5 5l0 24c0 3 2 5 5 5l46 0c3 0 6-2 6-5l0-24c0-3-3-5-6-5z m41 24l-36 0 0-14 36 0z m-260-47c-3 0 0 3 0 0z m264 0c0 3 3 0 0 0z m0-176c3 0 0-3 0 0z m-264 0c0-3-3 0 0 0z m-66 88c0-3-3 0 0 0z m0 198c-3 0 0 3 0 0z m66 88c-3 0 0 3 0 0z m264 0c0 3 3 0 0 0z m66-88c0 3 3 0 0 0z"/>
<glyph glyph-name="backend-publish" unicode="&#57363;" d="M256 505c-138 0-250-112-250-249 0-137 112-249 250-249 137 0 249 112 249 249 0 137-112 249-249 249z m0-483c-129 0-234 105-234 234 0 129 105 234 234 234 129 0 234-105 234-234 0-129-105-234-234-234z m88 342c-2 1-4 2-6 2l-95 0c-4 0-8-3-8-8 0-4 4-7 8-7l77 0-172-172c-3-3-3-8 0-11 1-1 3-2 5-2 2 0 4 1 5 2l173 172 0-77c0-4 3-7 7-7 4 0 8 3 8 7l0 95c0 2-1 4-2 6z"/>
<glyph glyph-name="backend-refund" unicode="&#57429;" d="M421 426l28 27-105 17 39-104 18 35c38-39 59-91 59-146 0-114-92-207-206-207-9 0-16-7-16-16 0-9 7-16 16-16 132 0 239 107 239 239-1 65-26 126-72 171z m-318-314c-38 39-60 90-60 145 0 115 93 208 207 208 8 0 16 7 16 16 0 9-8 16-16 16-132 0-239-108-239-240 0-65 26-126 72-171l-28-27 105-17-40 105z"/>
<glyph glyph-name="backend-safe" unicode="&#57428;" d="M365 431l-284 0 0-350 350 0 0 284z m-197-22l176 0 0-44-176 0z m176-306l-176 0 0 175 176 0z m65 0l-44 0 0 197-218 0 0-197-44 0 0 306 44 0 0-65 218 0 0 43 44-43z m-208 109l110 0c6 0 11 5 11 11 0 6-5 11-11 11l-110 0c-6 0-11-5-11-11 0-6 5-11 11-11z"/>
<glyph glyph-name="backend-search" unicode="&#57362;" d="M376 295c0 85-69 154-154 154-85 0-154-69-154-154 0-85 69-154 154-154 85 0 154 69 154 154z m-154-132c-73 0-132 59-132 132 0 73 59 132 132 132 73 0 132-59 132-132 0-73-59-132-132-132z m212-44l-47 47c-10 10-25 12-37 6-4 4-11 4-16 0-4-4-4-11 0-15-6-13-3-28 7-38l46-47c13-13 34-13 47 0 13 13 13 34 0 47z m-15-31c-5-4-12-4-16 0l-47 47c-4 4-4 11 0 15 5 4 12 4 16 0l47-47c4-4 4-11 0-15z"/>
<glyph glyph-name="backend-send-reminder" unicode="&#57427;" d="M203 77c19 0 35 16 35 36l-69 0c0-20 16-36 34-36z m112 134l-27 0 0-38 8-8 7-7-199 0 7 7 8 8 0 110c0 41 26 77 64 86 0 0 15 4 20 4l1 0c6 0 20-4 20-4 24-6 44-23 55-46l29 0c-13 36-43 64-79 73l0 12c0 16-11 27-26 27-14 0-25-11-25-27l0-12c-49-12-86-58-86-113l0-99-34-36 0-17 291 0 0 17-34 36z m66 129l-15-15 46-47-220 0 0-22 220 0-46-46 15-16 73 73z"/>
<glyph glyph-name="backend-service-step-event" unicode="&#58150;" d="M388 410l-44 0 0 11c0 6-5 11-11 11-6 0-11-5-11-11l0-11-132 0 0 11c0 6-5 11-11 11-6 0-11-5-11-11l0-11-44 0c-24 0-44-20-44-44l0-242c0-24 20-44 44-44l264 0c24 0 44 20 44 44l0 242c0 24-20 44-44 44z m-286-44c0 12 10 22 22 22l44 0 0-11c0-6 5-11 11-11 6 0 11 5 11 11l0 11 132 0 0-11c0-6 5-11 11-11 6 0 11 5 11 11l0 11 44 0c12 0 22-10 22-22l0-66-308 0z m308-88l0-44-308 0 0 44z m0-66l0-42-308 0 0 42z m-22-110l-264 0c-12 0-22 10-22 22l0 24 308 0 0-24c0-12-10-22-22-22z"/>
<glyph glyph-name="backend-spinner" unicode="&#57359;" d="M475 248c-1-2-1-5-1-9 0-2-1-4-1-6 0-2 0-4-1-7 0-5-1-10-3-15-1-6-3-12-4-18-3-6-5-12-8-19-3-6-7-13-10-20-2-3-4-7-7-10-2-4-4-8-7-11-5-6-10-14-17-20-11-14-27-26-43-37-17-11-35-19-55-25-20-6-40-9-62-9-20 0-42 3-62 9-19 6-38 14-55 25-16 11-31 23-43 37-7 6-12 14-17 20-3 3-5 7-7 11-3 3-5 7-7 10-3 7-7 14-10 20-3 7-6 13-8 19-1 6-3 12-5 18-1 5-1 11-2 15-1 3-1 5-1 7 0 2-1 4-1 6 0 4-1 7-1 9-1 5-1 8-1 8 0 0 0-3 1-8 0-3 0-6 0-10 0-2 0-3 0-6 0-2 0-4 1-6 0-5 1-10 2-16 1-5 2-11 4-18 1-6 4-13 6-20 1-3 3-7 5-10 1-4 3-8 5-11 1-4 3-8 6-11 2-4 3-8 6-12 6-7 11-15 17-21 12-15 28-28 45-39 4-3 8-6 13-9 4-2 9-5 14-7l7-3 8-3c5-2 10-4 15-6 6-1 11-2 16-4l4-1 4 0 8-1c6-1 11-2 17-2l16-1c21 0 44 4 65 10 5 1 10 4 15 5l8 3 8 4c4 2 9 4 14 7 4 3 9 5 13 8 17 12 32 24 44 39 7 7 12 15 17 22 3 3 5 7 7 11 2 4 4 7 6 11 2 4 3 7 5 11 2 3 3 7 4 11 3 7 5 13 7 20 1 6 3 12 4 18 1 5 2 10 2 15 0 3 1 5 1 7 0 2 0 4 0 6 0 4 0 7 0 9 0 5 0 8 0 8 0 0 0-3-1-8z"/>
<glyph glyph-name="backend-starred" unicode="&#57358;" d="M271 429l40-119 132 0c9 0 16-6 16-14 0-5-3-10-7-12l-107-73 42-118c2-8-2-16-10-19-5-2-11-1-15 2l0 0-106 73-107-73c-6-5-16-3-21 3-4 5-4 10-2 14l41 118-107 73c-7 5-9 14-4 20 3 4 8 6 13 6l132 0 40 119c3 7 12 12 20 9 5-1 8-5 10-9z m21-126l-36 105-36-104c-2-8-9-14-18-14l-117 1 95-65c6-5 9-13 7-20l-37-105 94 65c7 4 16 5 23 0l94-65-36 105 0 0c-2 7 0 15 7 20l95 65-115-1c-9 0-17 5-20 13z"/>
<glyph glyph-name="backend-starred-solid" unicode="&#57390;" d="M443 310l-132 0-40 119 0 0c-2 4-5 7-10 9-8 2-17-2-20-10l-40-118-132 0c-5 0-10-2-13-6-5-6-3-16 4-20l107-73-41-118c-2-4-2-9 2-14 5-6 14-8 21-3l107 73 106-73 0 0c4-2 10-3 15-2 8 3 12 11 9 19l-41 118 107 73c4 3 7 7 7 12 0 8-7 14-16 14z"/>
<glyph glyph-name="backend-subject" unicode="&#57425;" d="M400 237l-137-137c-6-7-15-10-24-10-10 0-19 3-25 10l-109 109c-7 6-15 20-15 30 0 9 8 23 15 30l137 136c12 13 36 17 54 17l91 0c20 0 35-15 35-35l0-91c0-18-10-47-22-59z m2 143c0 12-10 22-22 22l-87 0c-13 0-33-8-42-18l-129-129c-4-4-7-9-7-15 0-6 3-11 7-16l102-102c8-8 23-8 31 0l129 129c9 9 18 29 18 42l0 87z m-49-58c-17 0-30 13-30 30 0 17 13 30 30 30 17 0 30-13 30-30 0-17-13-30-30-30z m0 42c-7 0-12-5-12-12 0-7 5-12 12-12 7 0 12 5 12 12 0 7-5 12-12 12z"/>
<glyph glyph-name="backend-success" unicode="&#57426;" d="M256 497c-133 0-241-108-241-241 0-133 108-240 241-240 133 0 241 107 241 240 0 133-108 241-241 241z m0-460c-121 0-219 98-219 219 0 121 98 219 219 219 121 0 219-98 219-219 0-121-98-219-219-219z m84 302l-126-160-59 59c-4 4-11 4-15 0-2-2-3-4-3-7 0-3 1-5 3-7l66-66c1-1 2-2 4-3 1 0 3-1 4-1 3 0 5 1 7 3l133 168c2 2 3 4 3 7 0 3-1 5-3 7-3 4-10 4-14 0z"/>
<glyph glyph-name="backend-upload" unicode="&#57439;" d="M340 270l-84 82-83-82 13-13 61 61 0-247 19 0 0 247 61-61z m78 72c0 2 0 3 0 4 0 71-60 129-132 129-52 0-96-30-117-73-9 4-20 7-30 7-34 0-61-26-67-58-39-13-68-51-68-95 0-55 45-100 101-100l103 0 0 18-102 0c-46 0-84 37-84 82 0 35 23 68 57 79l9 4 2 9c4 24 25 44 49 44 8 0 16-2 23-6l15-7 7 15c19 39 59 63 102 63 62 0 114-47 114-109 0-14 0-22 0-22l17 0c41-1 74-37 74-78 0-41-34-74-75-74l-114 0 0-18 114 0c51 0 93 41 93 92 0 50-40 94-91 94z"/>
<glyph glyph-name="backend-waitinglist" unicode="&#57385;" d="M356 96l-351 0c-2 0-5 2-5 5l0 57c0 33 83 86 181 86 99 0 180-49 180-81l0-62c0-2-2-5-5-5z m-15 64c0 22-84 64-149 64-6 0-14 0-21 0-63 0-149-41-149-64l0-42 319 0 0 42z m-160 107c-41 0-74 33-74 74 0 41 33 75 74 75 42 0 75-34 75-75 0-41-33-74-75-74z m1 127c-30 0-53-24-53-53 0-29 23-53 53-53 29 0 53 24 53 53 0 29-24 53-53 53z m319-127l-213 0c-6 0-11 4-11 10 0 6 5 11 11 11l213 0c6 0 11-5 11-11 0-6-5-10-11-10z m0 85l-213 0c-6 0-11 5-11 10 0 6 5 11 11 11l213 0c6 0 11-5 11-11 0-5-5-10-11-10z m-170-149l170 0c6 0 11-5 11-11 0-6-5-11-11-11l-170 0c-6 0-11 5-11 11 0 6 5 11 11 11z"/>
<glyph glyph-name="file" unicode="&#57384;" d="M350 131l-172 0c-8 0-16 7-16 15l0 219c0 8 7 15 16 15l109 0 79-78 0-156c0-8-7-15-16-15z m-63 234l-109 0 0-219 172 0 0 156z m0 0l0-63 63 0 0-15-63 0c-8 0-15 7-15 15l0 63z m-31 140c-137 0-249-112-249-249 0-138 112-250 249-250 138 0 250 112 250 250 0 137-112 249-250 249z m0-484c-129 0-234 106-234 235 0 129 105 234 234 234 129 0 234-105 234-234 0-129-105-235-234-235z"/>
<glyph glyph-name="message" unicode="&#57379;" d="M365 147l-218 0c-17 0-31 14-31 31l0 140c0 17 14 31 31 31l218 0c17 0 31-14 31-31l0-140c0-17-14-31-31-31z m0 187l-218 0c-5 0-10-3-13-7l122-89 121 89c-3 4-7 7-12 7z m15-24l-80-59 73-71c4-3 5-8 2-11-3-4-7-4-11-2l-76 75-24-18c-3-2-6-2-8-1-3-1-6-1-8 1l-24 18-77-75c-3-2-8-2-11 2-2 3-1 8 2 11l73 71-80 59 0-132c0-8 7-15 16-15l218 0c8 0 15 7 15 15l0 132z m-124 195c-137 0-249-112-249-249 0-137 112-249 249-249 137 0 249 112 249 249 0 137-112 249-249 249z m0-482c-129 0-234 104-234 233 0 129 105 233 234 233 128 0 233-104 233-233 0-129-105-233-233-233z"/>
<glyph glyph-name="mobile" unicode="&#57378;" d="M256 505c-137 0-249-112-249-249 0-137 112-249 249-249 137 0 249 112 249 249 0 137-112 249-249 249z m0-482c-129 0-233 105-233 233 0 129 104 233 233 233 128 0 233-104 233-233 0-128-105-233-233-233z m-69 80c-14 0-24 11-24 25l0 241c0 13 10 24 24 24l138 0c13 0 24-11 24-24l0-241c0-14-11-25-24-25z m0 272c-4 0-6-3-6-6l0-241c0-4 3-6 6-6l138 0c3 0 6 2 6 6l0 241c0 3-3 6-6 6z m71-243c-14 0-25 11-25 24 0 14 11 25 25 25 13 0 24-11 24-25 0-13-11-24-24-24z m0 35c-6 0-10-5-10-10 0-6 4-11 10-11 5 0 10 5 10 11 0 5-5 10-10 10z"/>
<glyph glyph-name="next" unicode="&#57405;" d="M295 256l-102 112c-4 4-4 12 0 17 4 4 12 4 16 0l110-120c2-3 3-6 3-9 0-3-1-6-3-8l-110-121c-2-2-5-3-8-3-3 0-6 1-8 3-4 5-4 13 0 17z"/>
<glyph glyph-name="resource" unicode="&#57406;" d="M439 367c0 1-1 2-1 3 0 3-1 5-3 7-2 2-5 3-8 3-3 0-6-1-8-3l-51-51-41 41 51 52c4 4 4 11 0 15-2 2-4 3-6 3 0 0-1 1-1 1-11 4-23 5-34 5-29 0-55-11-76-31-27-28-37-68-27-106 0 0 0-1 0-1l-149-149c0 0-1-1-1-1-10-10-16-23-16-36 0-14 5-27 15-37 9-9 22-14 36-14l1 0c12 0 24 4 32 11 2 1 3 2 4 3l150 150c1 1 1 1 1 1 10-3 20-4 30-4 28 0 55 11 75 31 28 28 39 69 27 107z m-298-269l0-1c-6-5-13-9-21-9l-1 0c-7 0-15 3-20 9-6 6-9 13-9 21 0 8 3 15 9 21 0 0 0 0 0 0l144 145c5-9 11-17 18-24 7-7 15-13 24-18z m256 178c-16-16-37-25-60-25-23 0-44 9-60 25-33 33-33 87 0 120 16 16 37 25 60 25 4 0 7 0 11 0l-45-46c-2-2-3-5-3-8 0-3 1-5 3-7l57-58c2-2 5-3 8-3 3 0 6 1 8 3l45 45c3-26-5-52-24-71z"/>
<glyph glyph-name="social-facebook" unicode="&#58169;" d="M182 35c-5 0-8 3-8 8l0 202-29 0c-4 0-8 4-8 9l0 83c0 5 4 8 8 8l29 0 0 54c0 49 39 88 88 88l102 0c4 0 7-2 10-5 2-2 3-7 2-10l-24-86-3-3-48 0c-16 0-22-4-22-21l0-19 65 0c5 0 8-4 8-8l0-84c0-5-3-8-8-8l-65 0 0-204c0-4-4-8-9-8l-88 0z m72 23l0 204c0 4 3 7 7 7l65 0 0 49-65 0c-4 0-7 3-7 7l0 37c0 30 17 45 47 45l32 0 16 55-87 0c-35 0-63-29-63-64l0-73c0-4-4-7-7-7l-30 0 0-49 29 0c3 0 7-3 7-7l0-204z"/>
<glyph glyph-name="social-instagram" unicode="&#58176;" d="M155 1c-40 0-78 16-108 43l-1 2c-29 32-45 75-43 119l0 179c-3 47 15 93 47 124l1 1c30 26 68 40 110 40l195 0c44 0 88-20 119-54 24-31 37-71 34-109l0-182c2-43-13-86-40-117l-1-1c-31-29-73-46-114-46l-193 0c-2 1-5 1-6 1z m195 27c1 0 4 0 6 0 35 0 69 13 95 37 23 29 35 64 34 100l0 182c0 36-10 68-30 95-24 27-62 44-104 44l-192 0c-34 0-67-12-92-34-27-27-43-65-40-104l0-180c0-37 13-74 37-103 24-22 57-37 91-37 1 0 6 0 6 0z m-110 87c-69 0-126 57-126 127 0 69 57 126 126 126 70 0 127-57 127-126 0-70-57-127-127-127z m0 199c-41 0-72-32-72-72 0-41 33-73 72-73 40 0 73 32 73 73 0 41-31 72-73 72z m130 29c-14 0-27 11-27 27 0 15 13 27 27 27 7 0 15-3 20-9 4-4 7-11 5-17 2-15-11-28-25-28z"/>
<glyph glyph-name="social-newsletter" unicode="&#58177;" d="M435 371l0 51-71 0-108 77-108-77-71 0 0-51c-37-24-51-48-51-77l0-230c0-28 23-51 51-51l358 0c28 0 51 23 51 51l0 230c0 29-12 52-51 77z m26-89l0-218c0-3 0-5-1-8-2 2-2 2-3 3l-128 125z m-26 64c12-9 19-21 23-35l-23-17z m-179 128l72-52-144 0z m-154-77l308 0 0-122-154-114-154 114z m-25-51l0-52-23 17c4 14 11 26 23 35z m-26-64l132-98-131-128c-1 3-1 5-1 8z m26-244c-3 0-4 0-5 2l132 129 39-29c4-3 9-6 13-6 4 0 9 3 13 7l39 29 132-129c-1-3-2-3-5-3z"/>
<glyph glyph-name="social-twitter" unicode="&#58178;" d="M501 412c-2 4-6 6-10 8 1 2 1 4 2 6 3 10 0 20-8 26-4 4-9 6-15 6-4 0-8-1-12-4-12-7-26-13-40-17-21 18-47 27-75 27-62 0-114-49-117-111-57 9-110 40-147 85-5 6-12 9-19 9 0 0-1 0-2 0-7 0-14-5-18-12-10-17-16-38-16-58 0-17 3-32 9-47-6-4-10-11-10-19 0-1 0-1 0-2 0-32 13-61 35-83-3-5-3-11-1-17 9-27 27-49 50-63-18-7-37-10-56-10-6 0-13 0-19 1-1 0-2 0-3 0-10 0-19-6-22-16-4-10 0-22 9-28 47-30 100-46 156-46 44 0 86 9 123 27 35 16 66 39 91 68 48 53 75 124 75 195 0 0 0 0 0 0 16 13 30 29 42 47 6 8 5 20-2 28z m-64-64c0-3 0-8 0-12 0-123-94-265-265-265-53 0-102 16-143 42 7-1 15-1 22-1 44 0 84 15 116 40-41 0-75 27-87 64 5-1 11-1 17-1 9 0 17 1 25 3-43 8-75 46-75 91 0 0 0 1 0 1 12-7 27-11 42-11-25 17-41 45-41 78 0 17 5 33 13 46 46-56 114-93 191-97-1 7-2 14-2 21 0 52 42 94 93 94 27 0 51-12 68-30 22 4 41 12 60 23-8-22-22-40-42-52 19 2 37 7 54 15-12-19-28-35-46-49z"/>
<glyph glyph-name="support-call" unicode="&#57434;" d="M450 246l0 75c0 105-87 191-194 191-107 0-194-86-194-191l0-68c0 0 0 0 0-1l0-6c-11-4-19-14-19-25 0-12 8-22 19-25l0-7c0-29 24-52 54-52 29 0 53 23 53 52l0 63c0 29-24 53-53 53-16 0-30-7-40-18l0 34c0 97 81 177 180 177 99 0 180-80 180-177l0-34c-10 11-24 18-40 18-29 0-53-24-53-53l0-63c0-29 24-52 53-52 13 0 25 4 35 12-16-64-67-115-132-130 1 3 2 6 2 10 0 16-13 29-30 29l-30 0c-16 0-29-13-29-29 0-16 13-29 29-29l30 0c4 0 7 1 10 2 94 12 167 92 169 186 0 1 0 1 0 2l0 6c11 3 19 13 19 25 0 11-8 21-19 25z m0-35l0 20c3-3 5-6 5-10 0-5-2-8-5-10z m-54-61c-2 0-4 0-6 1l0 139c2 1 4 1 6 1 22 0 40-18 40-39l0-61c0-1 0-1 0-2l0-2c-1-21-18-37-40-37z m-20 135l0-129c-12 7-19 19-19 33l0 63c0 14 7 26 19 33z m-314-74c-3 2-5 5-5 10 0 4 2 7 5 9z m14 42c1 21 18 38 40 38 2 0 4 0 7-1l0-139c-3-1-5-1-7-1-22 0-40 18-40 39l0 30 0 1c0 0 0 33 0 33z m61-97l0 129c11-7 18-19 18-33l0-63c0-13-7-26-18-33z m104-112l31 0c8 0 15-7 15-16 0-5-3-11-9-14-8 0-15-1-22-1l-15 0c-9 0-16 7-16 15 0 9 7 16 16 16z"/>
<glyph glyph-name="support-email" unicode="&#57435;" d="M511 417l-2 3 0 0c-1 1-1 1-2 1 0 0 0 1-1 1l-499 0-1 0 0 0c0 0-1-1-1-1-1 0-1 0-2-1l-1-1c-1-1-1-2-1-2l0-1 0-319c0-4 3-7 6-7l498 0c3 0 6 3 6 7l0 318c0 1 0 1 0 2z m-255-195l-228 185 456 0z m4-16l238 194 0-295-484 0 0 295 238-194c3-2 5-2 8 0z"/>
<glyph glyph-name="time" unicode="&#57368;" d="M256 92c-90 0-164 74-164 164 0 91 74 164 164 164 90 0 164-74 164-164 0-91-74-164-164-164z m0 304c-77 0-140-63-140-140 0-77 63-140 140-140 77 0 140 63 140 140 0 77-63 140-140 140z m0-154c-7 0-13 6-13 13l0 101c0 8 6 14 13 14 8 0 14-6 14-14l0-87 51 0c8 0 14-7 14-14 0-7-6-13-14-13z"/>
<glyph glyph-name="widget-edit" unicode="&#58182;" d="M419 381l-38 38c-4 3-9 3-12 0l-250-251c-1 0-2-1-2-2l-26-64c-1-3 0-7 2-9 2-2 4-3 6-3 1 0 2 1 3 1 37 15 53 21 61 25 2 0 4 1 6 2l250 251c3 3 3 9 0 12z m-288-260l-10 10 7 17 20-21z m32 15l-27 26 209 209 26-26z m220 221l-26 26 1 2 27-26z m14 13l-27 27 5 4 26-26z"/>
<glyph glyph-name="backend-alternative" unicode="&#57345;" d="M423 334l-283 0c-14 0-26-12-26-25l0-176c0-14 12-25 26-25l75 0 0-26-75 0c-28 0-51 23-51 51l0 176c0 27 23 50 51 50l283 0 0-25z m-89 78l18 18 71-71-18-18z m0-132l18-17 71 71-18 17z"/>
<glyph glyph-name="backend-add-attachment" unicode="&#57437;" d="M101 454l133 0 0-99c0-6 4-11 11-11l99 0 0-66 22 0 0 88-110 111-155 0c-12 0-22-10-22-22l0-309c0-12 10-22 22-22l111 0 0 22-111 0z m155 0l88-88-88 0z m44-154l-155 0 0-22 155 0z m66-154l0 88-22 0 0-88-88 0 0-22 88 0 0-88 22 0 0 88 88 0 0 22-88 0z m-221 220l0-22 44 0 0 22z m0-154l155 0 0 22-155 0z"/>
<glyph glyph-name="attachment" unicode="&#57344;" d="M256 505c-137 0-249-112-249-249 0-137 112-249 249-249 137 0 249 112 249 249 0 137-112 249-249 249z m0-482c-129 0-234 104-234 233 0 129 105 233 234 233 128 0 233-104 233-233 0-129-105-233-233-233z m-66 112c-17 0-33 7-45 19-11 12-18 29-18 46 0 17 6 33 18 45l96 98c1 2 3 3 5 3 3 0 5-1 6-3 2-1 3-3 3-5 0-2-1-4-3-6l-95-98c-9-9-14-21-14-34 0-13 5-25 14-34 9-9 21-14 33-14 13 0 24 5 33 14l137 140c6 6 9 14 9 22 0 9-3 17-9 23-6 6-14 10-22 10-9 0-16-4-22-10l-109-112c-3-3-4-7-4-11 0-4 1-8 4-11 3-3 7-4 11-4 4 0 8 1 10 4l68 70c2 1 4 2 6 2 2 0 4-1 5-2 2-2 3-4 3-6 0-2-1-4-3-6l-67-69c-6-6-14-10-22-10-9 0-16 4-22 10-6 6-10 14-10 22 0 9 4 17 10 23l108 112c9 9 21 14 34 14 12 0 24-5 33-14 9-10 14-22 14-35 0-12-5-24-14-34l-136-140c-12-12-28-19-45-19z"/>
<glyph glyph-name="appointment-download" unicode="&#57391;" d="M480 285c-16 0-28-12-28-28l0-168-392 0 0 168c0 16-13 28-28 28-15 0-28-12-28-28l0-196c0-15 13-28 28-28l448 0c15 0 28 13 28 28l0 196c0 16-13 28-28 28z m-112 0l-84 0 0 168c0 16-13 28-28 28-16 0-28-12-28-28l0-168-84 0 112-112z"/>
<glyph glyph-name="appointment-notification-info-01" unicode="&#57392;" d="M255 152c-10 0-17-8-17-17 0-9 7-16 17-16 9 0 16 7 16 16 0 9-7 17-16 17z m0 49c6 0 12 3 12 6l0 187c0 4-6 7-12 7-7 0-12-3-12-7l0-187c0-3 5-6 12-6z m0 305c-138 0-249-111-249-249 0-137 111-249 249-249 137 0 249 112 249 249 0 138-112 249-249 249z m0-483c-129 0-234 105-234 234 0 129 105 234 234 234 129 0 234-105 234-234 0-129-105-234-234-234z"/>
<glyph glyph-name="appointment-notification-info-02" unicode="&#57393;" d="M255 134c-9 0-17-8-17-17 0-10 8-18 17-18 10 0 18 8 18 18 0 9-8 17-18 17z m-12 200l0-154c0-4 6-7 13-7 7 0 12 3 12 7l0 154c0 4-5 8-12 8-7 0-13-4-13-8z m259-281l-233 421c-5 10-20 10-25 0l-235-421c-3-6-3-11 0-16 3-4 7-7 13-7l467 1c5 0 10 2 13 6 3 5 3 10 0 16z m-477-5l231 412 230-412z"/>
<glyph glyph-name="appointment-notification-info-feedback" unicode="&#57394;" d="M255 506c-137 0-249-112-249-249 0-137 112-249 249-249 137 0 249 112 249 249 0 137-112 249-249 249z m0-483c-129 0-234 105-234 234 0 130 105 235 234 235 129 0 234-106 234-235 0-129-105-234-234-234z m140 194c0 10-4 20-11 29 2 1 3 3 4 5 0 0 1 1 1 1 2 8 3 15 3 22 0 1 0 2 0 3 0 1 0 1 0 2 0 53-58 97-132 99-4 0-7 0-11 0-76 0-139-45-139-100 0-19 5-34 14-46 9-13 22-25 39-34l-8-36c0-1 0-1 0-2l0-3c0-1-1-4 2-6 2-2 5-1 6 0l38 19 14 7c4-1 8-1 13-2 6-1 10 3 9 8 14-18 41-30 71-30 1 0 2 0 3 0 0 0 1 0 2 0 6 0 11 0 17 1l28-14c2-1 5-2 7-2 1 1 3 2 3 2 1 2 2 3 2 5l-5 22c19 11 29 27 29 45 0 1 0 2 0 3 0 0 1 1 1 2z m-16 62c0-6 0-13-2-19-1-1-1-3-2-5-15 13-37 21-62 21-1 0-2 0-3 0 0 0-2 0-2 0-46 0-82-28-82-60 0-11 2-19 6-27-5 1-14 2-17 3l-1 0c0 0-2-1-3-1l-39-20 6 30c1 3-1 4-3 5-32 17-51 44-51 73 0 1 0 3 1 4 6 46 61 82 127 82 60 0 110-29 124-68 2-6 3-12 3-18z m-140-65c0 2 0 4 1 6 5 24 35 42 71 43 37-1 67-20 71-45 0-1 0-1 0-1 0-16-10-31-28-41-2-1-4-2-3-5l2-13-18 9c0 0-1 0-1 0l-1 0c-7-1-18-2-25-2-1 0-2 0-3 0-37 3-66 21-66 49z"/>
<glyph glyph-name="appointment-notification-info-lock" unicode="&#57395;" d="M255 506c-137 0-249-112-249-249 0-138 112-249 249-249 138 0 249 112 249 249 0 137-111 249-249 249z m0-485c-130 0-236 106-236 236 0 130 106 236 236 236 130 0 236-106 236-236 0-130-106-236-236-236z m83 298l0 64c0 20-20 34-39 34l-85 0c-20 0-42-15-42-34l0-64c-19-1-33-16-33-35l0-132c0-20 16-35 36-35l161 0c20 0 36 16 36 35l0 132c0 19-15 34-34 35z m-155 64c0 12 18 21 31 21l85 0c12 0 28-8 28-21l0-64-144 0z m176-231c0-13-11-23-23-23l-161 0c-13 0-24 10-24 23l0 132c0 13 11 23 24 23l161 0c12 0 23-10 23-23z m-103 114c-18 0-33-14-33-32 0-15 11-27 26-31l0-33c0-3 3-6 6-6 4 0 7 3 7 6l0 33c15 2 27 15 27 31 0 18-15 32-33 32z m0-51c-11 0-20 8-20 19 0 11 9 20 20 20 11 0 20-8 20-20 0-10-9-19-20-19z"/>
<glyph glyph-name="appointment-notification-info-x" unicode="&#57397;" d="M255 506c-137 0-249-112-249-249 0-138 112-249 249-249 138 0 249 111 249 249 0 137-111 249-249 249z m0-485c-130 0-236 106-236 236 0 130 106 236 236 236 130 0 236-106 236-236 0-130-106-236-236-236z m106 332c0 3-1 5-3 6-3 3-8 3-11 0l-91-91-92 91c-3 3-8 3-11 0-3-3-3-8 0-11l91-91-91-91c-2-2-3-4-3-6 0-2 1-4 3-6 3-3 8-3 11 1l91 90 92-90c1-2 3-3 6-3 2 0 4 1 5 2 2 2 3 4 3 6 0 2-1 4-3 6l-91 91 91 91c2 1 3 3 3 5z"/>
<glyph glyph-name="appointment-share-email" unicode="&#57398;" d="M483 433l-454 0c-14 0-25-10-25-23l0-317c0-13 11-23 25-23l454 0c13 0 24 10 24 23l0 317c0 13-11 23-24 23z m-4-311l-141 140 141 111z m-15 283l-208-168-209 168z m-432-32l143-112-143-140z m166-130l58-45 58 45 151-145-419 0z"/>
<glyph glyph-name="close" unicode="&#57399;" d="M283 257l216 216c8 8 8 20 0 28-8 8-20 8-28 0l-216-216-216 216c-8 8-20 8-28 0-8-8-8-20 0-28l216-216-216-216c-8-8-8-20 0-28 8-8 20-8 28 0l216 216 216-216c8-8 20-8 28 0 8 8 8 20 0 28z"/>
<glyph glyph-name="facebook" unicode="&#57400;" d="M281 252l0-249-91 0 0 249-42 0 0 87 42 0 0 79c-2 45 37 90 87 90l118 0-26-93-48 0c-25 0-39-11-40-38l0-38 84 0 0-87"/>
<glyph glyph-name="minus" unicode="&#57401;" d="M9 279l493 0 0-45-493 0z"/>
<glyph glyph-name="plus" unicode="&#57402;" d="M502 279l-224 0 0 224-45 0 0-224-224 0 0-45 224 0 0-224 45 0 0 224 224 0z"/>
<glyph glyph-name="tick" unicode="&#57403;" d="M479 426l-311-310-134 134c-7 7-19 6-25 0-4-4-5-8-5-13 0-5 1-9 5-13l145-144c2-3 4-5 7-6 2-1 5-2 7-2 5 0 9 2 13 6l323 323c4 3 5 8 5 13 0 5-2 9-5 12-6 7-18 7-25 0z"/>
<glyph glyph-name="twitter" unicode="&#57404;" d="M4 179c33-30 117-59 186 8-13-1-23 1-31 9-7 7-8 15-4 22 4 5 10 9 17 13-12-2-22-1-32 4-12 6-24 13-27 27 7 8 16 15 34 12-17 6-33 13-44 24-11 11-12 19-14 27 10 4 20 5 30 4-24 13-34 30-40 48-1 6-2 11-1 16 98-36 143-63 168-88 12 30 38 99 77 122 1-4-1-8-4-12 12 7 21 17 37 17-2-8-7-14-18-18 11 4 22 8 33 10 10 2 10-7 4-11-12-8-24-9-37-13 38-1 69-19 93-57 8-13 13-26 14-40 16-5 32-6 48-3 5 1 9 2 13 4-7-10-14-17-24-21-10-3-19-7-30-7 17-6 37-7 56-5-24-23-42-23-61-23-8-34-24-68-59-99-46-41-95-61-146-65-48-4-94-3-145 20-37 18-69 42-93 75z"/>
<glyph glyph-name="appointment-notification-info-tick" unicode="&#57396;" d="M255 506c-137 0-249-112-249-249 0-138 112-249 249-249 138 0 249 111 249 249 0 137-111 249-249 249z m0-485c-130 0-235 106-235 236 0 130 105 236 235 236 130 0 236-106 236-236 0-130-106-236-236-236z m126 327l-169-169-83 82c-2 3-6 3-9 0-1-1-2-3-2-4 0-2 1-4 2-5l87-86c0-1 1-2 2-2 1-1 2-1 3-1 2 0 3 1 4 2l175 174c1 1 1 3 1 5 0 2 0 3-1 4-3 3-7 3-10 0z"/>
<glyph glyph-name="action-sheet-favourite-filled" unicode="&#58212;" d="M510 315c-2 5-5 7-10 8l-163 20-70 149c-1 5-6 8-11 8-5 0-9-3-11-8l-70-149-163-20c-5 0-8-3-10-8-1-5 0-10 4-13l119-112-30-163c-1-5 1-10 5-12 4-3 9-4 14-1l142 78 142-78c3-2 4-2 7-2 2 0 5 2 7 3 4 2 6 7 5 12l-31 162 119 112c5 4 6 9 5 14z"/>
<glyph glyph-name="floating-arrow" unicode="&#58213;" d="M448 154l2 3c0-2-1-2-2-3 0 1 0 0 0 0z m1 18l-185 181c-1 1-2 1-3 2 0 0-1 2-1 2-3 3-10 3-14-2l-183-182c-4-5-4-12 0-18 4-3 11-3 15 2l175 177 180-177c4-5 9-5 15-2 5 5 5 12 1 17z m-188 185c1-2 1-2 2-2z m-197-202c-1 2-1 2-2 2z"/>
<glyph glyph-name="back-new" unicode="&#58214;" d="M377 494c1 0 1-2 1-3z m1-473c0 0 0-1 0 0-1-1-1-1-1-3z m-244 240c1 1 1 1 1 2z m243-226l-219 219 220 223c5 5 5 10 1 15-4 5-12 5-16 0l-226-228c-1-1-1-2-2-3 0 0-1-1-1-1-4-5-4-11 1-15l227-227c4-4 12-4 17 0 3 7 3 14-2 17z"/>
<glyph glyph-name="hamburger-new" unicode="&#58215;" d="M28 245l457 0 0 21-457 0z m0-142l457 0 0 22-457 0z m0 305l0-22 457 0 0 22z"/>
<glyph glyph-name="appointment-dot" unicode="&#58216;" d="M257 311c30 0 54-24 54-54 0-31-24-55-54-55-31 0-55 24-55 55 0 29 24 54 55 54z"/>
<glyph glyph-name="add-new" unicode="&#58217;" d="M496 267l-229 0 0 229-21 0 0-229-229 0 0-21 229 0 0-229 21 0 0 229 229 0z"/>
<glyph glyph-name="backend-payment-type" unicode="&#57430;" d="M482 465l-377 0c-8 0-15-3-20-8-5-6-8-13-8-20l0-14c-9 0-17-4-22-12-26-40-37-67-47-114-7-33-1-64 4-90 4-23 8-44 4-65 0 0 0 0 0 0 0 0 0-1 0-1-1-8 0-15 4-22-5-4-7-10-7-17l0-28c0-15 12-27 27-27l95 0c15 0 27 12 27 27l0 28c0 6-2 12-6 17 3 4 4 10 5 16l0 0c0 9 5 17 14 29 1 2 3 4 4 5 10 15 16 31 20 50l283 0c16 0 28 12 28 27l0 191c0 15-12 28-28 28z m-377-28l36 0c0 0 0 0 0 0 0-20-16-36-36-36 0 0 0 0 0 0z m30-363l-95 0 0 28 95 0z m43 213c0-12 0-27-2-41 0-4-1-9-1-14-1-4-2-9-3-13-3-13-8-25-15-34-11-15-22-28-23-48l0-2c0 0 0-6-9-6l0 0c-14 0-62 0-77 0-6 0-6 6-5 8 0 1 0 1 0 1 0 0 0 0 0 0 8 53-20 100-9 154 9 42 19 67 43 104 0 0 0 0 0 1 2-14 1-28 0-41 0 0 0-1 0-1-1-21-3-43 0-65 1-12 3-23 7-33 2-4 4-8 7-10 6-7 14-10 22-10 7 0 14 3 19 9 1 1 2 2 2 2 12 17 14 45 26 58 3 3 7 5 11 5 1 0 2 0 4 0 9-2 4-18 3-24z m304-41l-36 0c0 0 0 0 0 0 0 20 16 37 36 37l0-37z m0 58c-32 0-58-26-58-58 0 0 0 0 0 0l-221 0c1 13 2 27 2 40 0 1 0 2 0 3 6 36-13 45-25 48-3 0-6 1-9 1-11 0-22-5-30-14-11-11-16-26-20-39-3-9-6-17-9-21-1 0-2 1-3 2-2 6-3 12-4 18l0 91c0 1 0 3 0 5 32 0 58 25 58 57 0 0 0 0 0 0l261 0c0 0 0 0 0 0 0-15 6-30 17-41 11-10 26-16 41-16l0-76z m0 97c-9 0-19 3-26 10-7 7-10 16-10 26 0 0 0 0 0 0l36 0z m-188 18c-44 0-79-35-79-77 0-43 35-78 79-78 43 0 78 35 78 78 0 42-35 77-78 77z m0-134c-32 0-58 25-58 57 0 31 26 56 58 56 31 0 57-25 57-56 0-32-26-57-57-57z m16 58c-2 2-6 3-11 5l-11 4 0 0c-1 0-1 0-1 0l0 0c-2 1-3 2-3 2-1 2-2 3-2 5 0 2 1 3 2 4 0 0 1 0 1 0 0 0 3 4 14 2 0 0 1 0 1 0 1 0 2 0 3 0 1 0 1-1 2-1 2 0 4-1 7-2 1 0 2 0 3 2l3 6c0 2-1 3-2 4-5 2-11 3-17 3l0 7c0 1-1 3-2 3l-7 0c-1 0-2-2-2-3l0-7c-5-1-10-3-13-5-4-4-6-8-6-13 0-6 2-10 5-13 3-3 7-6 13-8l13-4c2-1 4-2 4-3 1-1 2-2 2-4 0-1 0-5-6-6 0 0-5-2-12-1 0 0 0 0-1 0 0 0 0 0 0 0 0 0 0 0-1 0-1 0-3 0-5 1-4 1-7 2-10 3 0 0-1 0-2 0-1-1-1-2-1-2l0-8c0-1 1-2 1-3 3-1 6-2 10-2 3-1 6-1 9-1l0-9c0-1 1-3 2-3l7 0c1 0 2 2 2 3l0 10c6 1 11 3 14 6 4 3 6 8 6 13 0 3 0 6-2 9-1 2-4 4-7 6z"/>
<glyph glyph-name="backend-appointment-color" unicode="&#58225;" d="M404 454c-3 2-7 3-12 3-24 0-70-36-95-58-38-33-77-73-99-104-19-25-30-48-30-68-15-1-43-7-61-48-14-30-8-55-3-76 4-14 5-23 3-29-1 0-1-1-2-2-2-2-2-5-2-8 1-3 2-5 5-7l0 0c2-2 4-2 6-2 4 0 7 1 9 4 1 1 1 2 2 2 5 5 14 6 28 7 22 1 49 3 74 25 34 29 32 58 28 72 19 6 39 22 58 48 25 34 55 87 76 135 38 89 22 101 15 106z m-189-347c-20-18-43-20-63-21-9-1-18-1-25-4 0 8-2 16-4 25-5 19-10 41 1 65 19 42 48 36 50 36 0 0 0 0 0 0 5-16 18-26 23-30 6-4 19-14 38-14 0 0 0 0 0 1 0-1 0-1 0-1 1-1 15-27-20-57z m20 72c-14 0-24 7-29 11-8 6-25 18-18 47 8-9 19-20 33-30 13-9 27-16 38-20-8-5-16-8-24-8z m136 174c-21-46-49-97-73-129-8-11-16-19-24-26-9 1-25 8-44 21-17 12-31 26-36 35 4 9 10 19 19 30 49 67 152 155 179 155 1 0 1 0 1 0 3-3 5-24-22-86z"/>
<glyph glyph-name="backend-payment-online-new" unicode="&#58226;" d="M87 126l338 0c24 0 43 19 43 42l0 212c0 23-19 42-43 42l-338 0c-24 0-42-19-42-42l0-212c0-23 19-42 42-42z m-21 254c0 11 9 21 21 21l338 0c12 0 21-10 21-21l0-212c0-11-9-21-21-21l-338 0c-12 0-21 10-21 21z m433-265l-486 0c-6 0-11-4-11-10 0-6 5-11 11-11l486 0c6 0 11 5 11 11 0 6-5 10-11 10z"/>
<glyph glyph-name="recurring" unicode="&#57371;" d="M399 57l-286 0c-26 0-48 22-48 48l0 286c0 26 22 47 48 47l149 0 0-24-149 0c-13 0-24-10-24-23l0-286c0-13 11-24 24-24l286 0c13 0 24 11 24 24l0 286c0 13-11 23-24 23l-95 0 0 24 95 0c26 0 47-21 47-47l0-286c0-27-21-48-47-48z m-221 431l17 17 67-67-16-17z m0-124l17-17 67 68-16 16z"/>
<glyph glyph-name="backend-confirm" unicode="&#57350;" d="M383 370l-172-206-82 82c-4 4-11 4-14 0-2-2-3-4-3-7 0-3 1-6 3-8l88-88c1-1 3-3 4-3 1-1 3-1 4-1 3 0 6 1 8 3l178 214c2 2 3 4 3 7 0 3-1 5-3 7-3 4-10 4-14 0z"/>
<glyph glyph-name="backend-delete" unicode="&#57351;" d="M376 365c0 4-1 7-3 9-5 4-13 4-18 0l-100-101-100 101c-5 4-12 4-17 0-5-5-5-13 0-17l100-101-100-100c-2-3-4-6-4-9 0-3 2-6 4-9 5-4 12-4 17 0l100 101 100-101c3-2 6-3 9-3 3 0 6 1 8 3 3 3 4 6 4 9 0 3-1 6-4 9l-100 100 100 101c3 2 4 5 4 8z"/>
<glyph glyph-name="backend-messenger-videocall" unicode="&#57441;" d="M502 96l-155 83 0-22c0-29-24-53-54-53l-229 0c-30 0-54 24-54 53l0 198c0 29 24 53 54 53l230 0c29 0 53-24 53-53l0-22 155 83 0-320z m-438 290c-18 0-32-14-32-31l0-198c0-17 14-31 32-31l230 0c17 0 31 14 31 31l0 198c0 17-14 31-31 31z m283-182l133-71 0 246-133-71z"/>
</font>
</defs>
</svg>
